<?xml version="1.0" encoding="UTF-8"?>
<svg xmlns="http://www.w3.org/2000/svg" xmlns:xlink="http://www.w3.org/1999/xlink" width="150px" height="100px" viewBox="0 0 150 100" version="1.1">
<defs>
<filter id="alpha" filterUnits="objectBoundingBox" x="0%" y="0%" width="100%" height="100%">
  <feColorMatrix type="matrix" in="SourceGraphic" values="0 0 0 0 1 0 0 0 0 1 0 0 0 0 1 0 0 0 1 0"/>
</filter>
<mask id="mask0">
  <g filter="url(#alpha)">
<rect x="0" y="0" width="150" height="100" style="fill:rgb(0%,0%,0%);fill-opacity:0.270588;stroke:none;"/>
  </g>
</mask>
<clipPath id="clip1">
  <rect x="0" y="0" width="150" height="100"/>
</clipPath>
<g id="surface5" clip-path="url(#clip1)">
<path style=" stroke:none;fill-rule:nonzero;fill:rgb(44.705882%,16.078431%,70.980392%);fill-opacity:1;" d="M 30.558594 89.289062 C 31.171875 89.742188 32.246094 90.070312 33.304688 90.382812 L 121.472656 90.382812 C 121.605469 90.300781 121.738281 90.210938 121.859375 90.109375 C 122.632812 89.46875 123.039062 88.496094 123.386719 87.550781 C 125.058594 82.996094 125.964844 78.082031 125.378906 73.265625 C 124.796875 68.449219 122.617188 63.730469 118.902344 60.609375 C 117.007812 59.015625 114.757812 57.859375 112.980469 56.136719 C 107.519531 50.84375 107.445312 41.25 101.179688 36.945312 C 98.292969 34.960938 94.59375 34.535156 91.097656 34.765625 C 87.832031 34.980469 84.554688 35.738281 81.730469 37.386719 C 78.777344 39.109375 76.464844 41.710938 74.011719 44.089844 C 69.097656 48.863281 63.125 53.007812 56.320312 53.800781 C 51.992188 54.304688 47.613281 53.421875 43.265625 53.6875 C 38.515625 53.976562 33.863281 55.671875 30.042969 58.503906 C 27.597656 60.316406 25.445312 62.65625 24.382812 65.511719 C 22.8125 69.734375 23.804688 74.472656 25.320312 78.714844 C 26.371094 81.640625 28.007812 87.386719 30.558594 89.289062 Z M 30.558594 89.289062 "/>
</g>
<mask id="mask1">
  <g filter="url(#alpha)">
<rect x="0" y="0" width="150" height="100" style="fill:rgb(0%,0%,0%);fill-opacity:0.270588;stroke:none;"/>
  </g>
</mask>
<clipPath id="clip2">
  <rect x="0" y="0" width="150" height="100"/>
</clipPath>
<g id="surface8" clip-path="url(#clip2)">
<path style=" stroke:none;fill-rule:nonzero;fill:rgb(44.705882%,16.078431%,70.980392%);fill-opacity:1;" d="M 119.296875 77.261719 C 116.976562 81.609375 114.644531 85.949219 112.324219 90.296875 C 112.011719 90.882812 111.679688 91.488281 111.128906 91.863281 C 110.421875 92.34375 109.5 92.335938 108.644531 92.3125 C 104.003906 92.179688 99.378906 92.097656 94.738281 92.054688 C 84.058594 91.957031 73.378906 91.859375 62.699219 91.761719 C 57.910156 91.71875 53.117188 91.675781 48.324219 91.632812 C 45.191406 91.601562 42.070312 91.722656 38.945312 91.730469 C 37.355469 91.734375 35.664062 91.433594 34.488281 90.359375 C 33.511719 89.46875 33.023438 88.175781 32.597656 86.925781 C 30.308594 80.179688 28.929688 73.128906 28.503906 66.019531 C 28.140625 59.921875 29.5 53.765625 34.382812 49.660156 C 36.199219 48.132812 38.359375 47.023438 40.066406 45.371094 C 45.308594 40.289062 45.378906 31.078125 51.394531 26.945312 C 54.167969 25.039062 57.714844 24.632812 61.070312 24.855469 C 64.207031 25.0625 67.351562 25.785156 70.066406 27.371094 C 72.898438 29.023438 75.121094 31.519531 77.472656 33.804688 C 82.191406 38.386719 87.921875 42.363281 94.457031 43.125 C 98.609375 43.609375 102.816406 42.761719 106.988281 43.015625 C 111.546875 43.296875 116.011719 44.921875 119.679688 47.640625 C 122.03125 49.382812 124.09375 51.628906 125.117188 54.371094 C 127.34375 60.355469 124.914062 66.636719 122.101562 71.96875 C 121.171875 73.734375 120.234375 75.5 119.296875 77.261719 Z M 119.296875 77.261719 "/>
</g>
<mask id="mask2">
  <g filter="url(#alpha)">
<rect x="0" y="0" width="150" height="100" style="fill:rgb(0%,0%,0%);fill-opacity:0.74902;stroke:none;"/>
  </g>
</mask>
<clipPath id="clip3">
  <rect x="0" y="0" width="150" height="100"/>
</clipPath>
<g id="surface11" clip-path="url(#clip3)">
<path style=" stroke:none;fill-rule:nonzero;fill:rgb(96.078431%,87.843137%,45.098039%);fill-opacity:1;" d="M 64.214844 64.621094 L 56.648438 83.839844 L 55.863281 80.992188 L 63.414062 64.453125 Z M 64.214844 64.621094 "/>
</g>
<mask id="mask3">
  <g filter="url(#alpha)">
<rect x="0" y="0" width="150" height="100" style="fill:rgb(0%,0%,0%);fill-opacity:0.74902;stroke:none;"/>
  </g>
</mask>
<clipPath id="clip4">
  <rect x="0" y="0" width="150" height="100"/>
</clipPath>
<g id="surface14" clip-path="url(#clip4)">
<path style=" stroke:none;fill-rule:nonzero;fill:rgb(96.078431%,87.843137%,45.098039%);fill-opacity:1;" d="M 90.199219 80.65625 L 89.566406 83.839844 L 82 64.621094 L 82.800781 64.453125 Z M 90.199219 80.65625 "/>
</g>
<mask id="mask4">
  <g filter="url(#alpha)">
<rect x="0" y="0" width="150" height="100" style="fill:rgb(0%,0%,0%);fill-opacity:0.74902;stroke:none;"/>
  </g>
</mask>
<clipPath id="clip5">
  <rect x="0" y="0" width="150" height="100"/>
</clipPath>
<g id="surface17" clip-path="url(#clip5)">
<path style=" stroke:none;fill-rule:nonzero;fill:rgb(96.078431%,87.843137%,45.098039%);fill-opacity:1;" d="M 73.820312 52.601562 C 73.683594 52.609375 73.53125 52.613281 73.375 52.613281 C 72.378906 52.613281 71.644531 52.457031 71.171875 52.308594 C 70.742188 52.171875 70.527344 52.039062 70.527344 52.039062 L 70.527344 47.0625 L 72.679688 48.097656 C 72.679688 48.097656 72.195312 51.039062 73.820312 52.601562 Z M 73.820312 52.601562 "/>
</g>
<mask id="mask5">
  <g filter="url(#alpha)">
<rect x="0" y="0" width="150" height="100" style="fill:rgb(0%,0%,0%);fill-opacity:0.74902;stroke:none;"/>
  </g>
</mask>
<clipPath id="clip6">
  <rect x="0" y="0" width="150" height="100"/>
</clipPath>
<g id="surface20" clip-path="url(#clip6)">
<path style=" stroke:none;fill-rule:nonzero;fill:rgb(96.078431%,87.843137%,45.098039%);fill-opacity:1;" d="M 65.167969 39.894531 C 65.3125 39.753906 65.53125 39.75 65.699219 39.855469 C 65.894531 39.972656 65.972656 40.203125 66.035156 40.410156 C 66.078125 40.550781 65.851562 40.613281 65.808594 40.46875 C 65.773438 40.347656 65.734375 40.207031 65.644531 40.109375 C 65.570312 40.023438 65.425781 39.96875 65.332031 40.0625 C 65.226562 40.164062 65.0625 40 65.167969 39.894531 Z M 65.167969 39.894531 "/>
</g>
<mask id="mask6">
  <g filter="url(#alpha)">
<rect x="0" y="0" width="150" height="100" style="fill:rgb(0%,0%,0%);fill-opacity:0.74902;stroke:none;"/>
  </g>
</mask>
<clipPath id="clip7">
  <rect x="0" y="0" width="150" height="100"/>
</clipPath>
<g id="surface23" clip-path="url(#clip7)">
<path style=" stroke:none;fill-rule:nonzero;fill:rgb(96.078431%,87.843137%,45.098039%);fill-opacity:1;" d="M 81.117188 39.894531 C 80.972656 39.753906 80.753906 39.75 80.585938 39.855469 C 80.390625 39.972656 80.3125 40.203125 80.25 40.410156 C 80.207031 40.550781 80.433594 40.613281 80.476562 40.46875 C 80.511719 40.347656 80.550781 40.207031 80.640625 40.109375 C 80.714844 40.023438 80.859375 39.96875 80.953125 40.0625 C 81.058594 40.164062 81.222656 40 81.117188 39.894531 Z M 81.117188 39.894531 "/>
</g>
<mask id="mask7">
  <g filter="url(#alpha)">
<rect x="0" y="0" width="150" height="100" style="fill:rgb(0%,0%,0%);fill-opacity:0.74902;stroke:none;"/>
  </g>
</mask>
<clipPath id="clip8">
  <rect x="0" y="0" width="150" height="100"/>
</clipPath>
<g id="surface26" clip-path="url(#clip8)">
<path style=" stroke:none;fill-rule:nonzero;fill:rgb(96.078431%,87.843137%,45.098039%);fill-opacity:1;" d="M 73.574219 48.527344 C 72.9375 48.550781 72.300781 48.476562 71.691406 48.316406 C 71.292969 48.210938 70.902344 48.070312 70.527344 47.890625 C 70.402344 47.832031 70.28125 47.769531 70.160156 47.699219 C 69.964844 47.589844 69.773438 47.46875 69.585938 47.335938 C 68.035156 46.253906 66.8125 44.414062 66.242188 41.808594 C 66.019531 40.746094 65.898438 39.554688 65.910156 38.230469 C 65.902344 37.929688 65.902344 37.628906 65.917969 37.332031 C 65.917969 37.328125 65.917969 37.328125 65.921875 37.320312 C 66.085938 34.234375 67.570312 31.574219 69.722656 30.195312 L 70.265625 32.4375 C 70.265625 32.4375 67.613281 42.824219 70.527344 46.910156 C 71.207031 47.863281 72.1875 48.472656 73.574219 48.527344 Z M 73.574219 48.527344 "/>
</g>
<mask id="mask8">
  <g filter="url(#alpha)">
<rect x="0" y="0" width="150" height="100" style="fill:rgb(0%,0%,0%);fill-opacity:0.490196;stroke:none;"/>
  </g>
</mask>
<clipPath id="clip9">
  <rect x="0" y="0" width="150" height="100"/>
</clipPath>
<g id="surface29" clip-path="url(#clip9)">
<path style=" stroke:none;fill-rule:nonzero;fill:rgb(90.980392%,63.137255%,21.568627%);fill-opacity:1;" d="M 78.28125 41.933594 C 78.121094 42.621094 77.429688 43.046875 76.742188 42.882812 C 76.054688 42.722656 75.628906 42.03125 75.792969 41.34375 C 75.957031 40.65625 76.644531 40.230469 77.332031 40.394531 C 78.019531 40.558594 78.445312 41.246094 78.28125 41.933594 Z M 78.28125 41.933594 "/>
<path style=" stroke:none;fill-rule:nonzero;fill:rgb(90.980392%,63.137255%,21.568627%);fill-opacity:1;" d="M 70.613281 42.132812 C 70.449219 42.820312 69.761719 43.246094 69.074219 43.085938 C 68.386719 42.921875 67.960938 42.234375 68.125 41.546875 C 68.285156 40.859375 68.976562 40.433594 69.664062 40.59375 C 70.351562 40.757812 70.773438 41.445312 70.613281 42.132812 Z M 70.613281 42.132812 "/>
</g>
<mask id="mask9">
  <g filter="url(#alpha)">
<rect x="0" y="0" width="150" height="100" style="fill:rgb(0%,0%,0%);fill-opacity:0.270588;stroke:none;"/>
  </g>
</mask>
<clipPath id="clip10">
  <rect x="0" y="0" width="150" height="100"/>
</clipPath>
<g id="surface32" clip-path="url(#clip10)">
<path style=" stroke:none;fill-rule:nonzero;fill:rgb(44.705882%,16.078431%,70.980392%);fill-opacity:1;" d="M 47.222656 89.609375 L 47.117188 90.183594 L 41.773438 90.183594 C 41.773438 90.183594 40.339844 81.839844 40.273438 81.644531 L 41.089844 80.433594 L 42.03125 79.035156 C 42.03125 79.035156 41.996094 80.144531 42.171875 81.644531 C 42.503906 84.578125 43.609375 89.011719 47.222656 89.609375 Z M 47.222656 89.609375 "/>
</g>
</defs>
<g id="surface1">
<use xlink:href="#surface5" mask="url(#mask0)"/>
<use xlink:href="#surface8" mask="url(#mask1)"/>
<path style=" stroke:none;fill-rule:nonzero;fill:rgb(44.705882%,16.078431%,70.980392%);fill-opacity:1;" d="M 101.960938 78.664062 C 101.960938 78.664062 105.457031 80.632812 105.402344 79.351562 C 105.347656 78.199219 102.632812 78.558594 102.066406 78.644531 C 102 78.65625 101.960938 78.664062 101.960938 78.664062 Z M 101.960938 78.664062 "/>
<path style=" stroke:none;fill-rule:nonzero;fill:rgb(44.705882%,16.078431%,70.980392%);fill-opacity:1;" d="M 101.996094 78.621094 C 101.996094 78.621094 103.96875 75.125 102.683594 75.183594 C 101.398438 75.242188 101.996094 78.621094 101.996094 78.621094 Z M 101.996094 78.621094 "/>
<path style=" stroke:none;fill-rule:nonzero;fill:rgb(44.705882%,16.078431%,70.980392%);fill-opacity:1;" d="M 99.777344 80.199219 C 99.777344 80.199219 103.273438 82.171875 103.214844 80.886719 C 103.160156 79.601562 99.777344 80.199219 99.777344 80.199219 Z M 99.777344 80.199219 "/>
<path style=" stroke:none;fill-rule:nonzero;fill:rgb(44.705882%,16.078431%,70.980392%);fill-opacity:1;" d="M 99.769531 80.203125 C 99.769531 80.203125 101.738281 76.707031 100.453125 76.765625 C 99.171875 76.824219 99.769531 80.203125 99.769531 80.203125 Z M 99.769531 80.203125 "/>
<path style=" stroke:none;fill-rule:nonzero;fill:rgb(44.705882%,16.078431%,70.980392%);fill-opacity:1;" d="M 98.027344 81.734375 C 98.027344 81.734375 101.097656 83.460938 101.046875 82.335938 C 100.996094 81.207031 98.027344 81.734375 98.027344 81.734375 Z M 98.027344 81.734375 "/>
<path style=" stroke:none;fill-rule:nonzero;fill:rgb(44.705882%,16.078431%,70.980392%);fill-opacity:1;" d="M 98.039062 81.761719 C 98.039062 81.761719 99.769531 78.695312 98.644531 78.746094 C 97.515625 78.796875 98.039062 81.761719 98.039062 81.761719 Z M 98.039062 81.761719 "/>
<path style=" stroke:none;fill-rule:nonzero;fill:rgb(44.705882%,16.078431%,70.980392%);fill-opacity:1;" d="M 96.480469 83.402344 C 96.480469 83.402344 99.539062 84.640625 99.355469 83.601562 C 99.175781 82.558594 96.480469 83.402344 96.480469 83.402344 Z M 96.480469 83.402344 "/>
<path style=" stroke:none;fill-rule:nonzero;fill:rgb(44.705882%,16.078431%,70.980392%);fill-opacity:1;" d="M 96.53125 83.445312 C 96.53125 83.445312 97.765625 80.386719 96.726562 80.570312 C 95.683594 80.753906 96.53125 83.445312 96.53125 83.445312 Z M 96.53125 83.445312 "/>
<path style=" stroke:none;fill-rule:nonzero;fill:rgb(44.705882%,16.078431%,70.980392%);fill-opacity:1;" d="M 95.152344 85.214844 C 95.152344 85.214844 98.425781 85.621094 97.980469 84.660156 C 97.535156 83.703125 95.152344 85.214844 95.152344 85.214844 Z M 95.152344 85.214844 "/>
<path style=" stroke:none;fill-rule:nonzero;fill:rgb(44.705882%,16.078431%,70.980392%);fill-opacity:1;" d="M 95.195312 85.210938 C 95.195312 85.210938 95.597656 81.9375 94.640625 82.382812 C 93.683594 82.828125 95.195312 85.210938 95.195312 85.210938 Z M 95.195312 85.210938 "/>
<path style=" stroke:none;fill-rule:nonzero;fill:rgb(44.705882%,16.078431%,70.980392%);fill-opacity:1;" d="M 94.109375 86.96875 C 94.109375 86.96875 96.949219 87.320312 96.5625 86.488281 C 96.175781 85.660156 94.109375 86.96875 94.109375 86.96875 Z M 94.109375 86.96875 "/>
<path style=" stroke:none;fill-rule:nonzero;fill:rgb(44.705882%,16.078431%,70.980392%);fill-opacity:1;" d="M 94.179688 86.984375 C 94.179688 86.984375 94.53125 84.144531 93.699219 84.53125 C 92.871094 84.917969 94.179688 86.984375 94.179688 86.984375 Z M 94.179688 86.984375 "/>
<path style=" stroke:none;fill-rule:nonzero;fill:rgb(44.705882%,16.078431%,70.980392%);fill-opacity:1;" d="M 93.414062 88.378906 C 93.414062 88.378906 95.835938 88.679688 95.507812 87.96875 C 95.175781 87.261719 93.414062 88.378906 93.414062 88.378906 Z M 93.414062 88.378906 "/>
<path style=" stroke:none;fill-rule:nonzero;fill:rgb(44.705882%,16.078431%,70.980392%);fill-opacity:1;" d="M 93.488281 88.402344 C 93.488281 88.402344 93.785156 85.980469 93.078125 86.308594 C 92.367188 86.640625 93.488281 88.402344 93.488281 88.402344 Z M 93.488281 88.402344 "/>
<path style=" stroke:none;fill-rule:nonzero;fill:rgb(44.705882%,16.078431%,70.980392%);fill-opacity:1;" d="M 101.808594 78.769531 C 101.808594 78.769531 105.652344 77.195312 105.246094 76.484375 C 104.839844 75.769531 101.808594 78.769531 101.808594 78.769531 Z M 101.808594 78.769531 "/>
<path style="fill:none;stroke-width:1;stroke-linecap:butt;stroke-linejoin:miter;stroke:rgb(44.705882%,16.078431%,70.980392%);stroke-opacity:1;stroke-miterlimit:10;" d="M 512.832031 391.40625 C 512.832031 391.40625 470.527344 413.4375 461.71875 460.878906 " transform="matrix(0.2,0,0,0.2,0,0)"/>
<path style=" stroke:none;fill-rule:nonzero;fill:rgb(44.705882%,16.078431%,70.980392%);fill-opacity:1;" d="M 40.8125 68.546875 C 40.8125 68.546875 33.875 68.621094 35.03125 66.722656 C 36.070312 65.023438 39.886719 67.832031 40.671875 68.433594 C 40.761719 68.503906 40.8125 68.546875 40.8125 68.546875 Z M 40.8125 68.546875 "/>
<path style=" stroke:none;fill-rule:nonzero;fill:rgb(44.705882%,16.078431%,70.980392%);fill-opacity:1;" d="M 40.796875 68.453125 C 40.796875 68.453125 40.722656 61.515625 42.617188 62.671875 C 44.515625 63.828125 40.796875 68.453125 40.796875 68.453125 Z M 40.796875 68.453125 "/>
<path style=" stroke:none;fill-rule:nonzero;fill:rgb(44.705882%,16.078431%,70.980392%);fill-opacity:1;" d="M 42.84375 72.691406 C 42.84375 72.691406 35.902344 72.765625 37.0625 70.867188 C 38.21875 68.972656 42.84375 72.691406 42.84375 72.691406 Z M 42.84375 72.691406 "/>
<path style=" stroke:none;fill-rule:nonzero;fill:rgb(44.705882%,16.078431%,70.980392%);fill-opacity:1;" d="M 42.851562 72.710938 C 42.851562 72.710938 42.777344 65.769531 44.675781 66.929688 C 46.574219 68.085938 42.851562 72.710938 42.851562 72.710938 Z M 42.851562 72.710938 "/>
<path style=" stroke:none;fill-rule:nonzero;fill:rgb(44.705882%,16.078431%,70.980392%);fill-opacity:1;" d="M 44.214844 76.472656 C 44.214844 76.472656 38.128906 76.535156 39.144531 74.871094 C 40.160156 73.207031 44.214844 76.472656 44.214844 76.472656 Z M 44.214844 76.472656 "/>
<path style=" stroke:none;fill-rule:nonzero;fill:rgb(44.705882%,16.078431%,70.980392%);fill-opacity:1;" d="M 44.171875 76.503906 C 44.171875 76.503906 44.109375 70.417969 45.773438 71.433594 C 47.4375 72.449219 44.171875 76.503906 44.171875 76.503906 Z M 44.171875 76.503906 "/>
<path style=" stroke:none;fill-rule:nonzero;fill:rgb(44.705882%,16.078431%,70.980392%);fill-opacity:1;" d="M 45.167969 80.292969 C 45.167969 80.292969 39.503906 79.617188 40.648438 78.195312 C 41.792969 76.769531 45.167969 80.292969 45.167969 80.292969 Z M 45.167969 80.292969 "/>
<path style=" stroke:none;fill-rule:nonzero;fill:rgb(44.705882%,16.078431%,70.980392%);fill-opacity:1;" d="M 45.058594 80.316406 C 45.058594 80.316406 45.730469 74.652344 47.15625 75.796875 C 48.578125 76.941406 45.058594 80.316406 45.058594 80.316406 Z M 45.058594 80.316406 "/>
<path style=" stroke:none;fill-rule:nonzero;fill:rgb(44.705882%,16.078431%,70.980392%);fill-opacity:1;" d="M 40.960938 68.835938 C 40.960938 68.835938 36.445312 63.25 37.652344 62.507812 C 38.863281 61.761719 40.960938 68.835938 40.960938 68.835938 Z M 40.960938 68.835938 "/>
<path style="fill:none;stroke-width:1;stroke-linecap:round;stroke-linejoin:round;stroke:rgb(44.705882%,16.078431%,70.980392%);stroke-opacity:1;stroke-miterlimit:10;" d="M 201.074219 337.324219 C 201.074219 337.324219 229.042969 379.296875 228.710938 435.488281 " transform="matrix(0.2,0,0,0.2,0,0)"/>
<path style=" stroke:none;fill-rule:nonzero;fill:rgb(44.705882%,16.078431%,70.980392%);fill-opacity:1;" d="M 99.261719 47.238281 C 99.261719 47.238281 103.289062 52.886719 104.136719 50.835938 C 104.902344 48.996094 100.382812 47.566406 99.433594 47.289062 C 99.324219 47.253906 99.261719 47.238281 99.261719 47.238281 Z M 99.261719 47.238281 "/>
<path style=" stroke:none;fill-rule:nonzero;fill:rgb(44.705882%,16.078431%,70.980392%);fill-opacity:1;" d="M 99.347656 47.199219 C 99.347656 47.199219 104.996094 43.171875 102.941406 42.320312 C 100.890625 41.46875 99.347656 47.199219 99.347656 47.199219 Z M 99.347656 47.199219 "/>
<path style=" stroke:none;fill-rule:nonzero;fill:rgb(44.705882%,16.078431%,70.980392%);fill-opacity:1;" d="M 94.714844 48.042969 C 94.714844 48.042969 98.742188 53.691406 99.59375 51.636719 C 100.445312 49.585938 94.714844 48.042969 94.714844 48.042969 Z M 94.714844 48.042969 "/>
<path style=" stroke:none;fill-rule:nonzero;fill:rgb(44.705882%,16.078431%,70.980392%);fill-opacity:1;" d="M 94.695312 48.042969 C 94.695312 48.042969 100.34375 44.015625 98.289062 43.164062 C 96.238281 42.3125 94.695312 48.042969 94.695312 48.042969 Z M 94.695312 48.042969 "/>
<path style=" stroke:none;fill-rule:nonzero;fill:rgb(44.705882%,16.078431%,70.980392%);fill-opacity:1;" d="M 90.851562 49.160156 C 90.851562 49.160156 94.382812 54.117188 95.128906 52.3125 C 95.878906 50.511719 90.851562 49.160156 90.851562 49.160156 Z M 90.851562 49.160156 "/>
<path style=" stroke:none;fill-rule:nonzero;fill:rgb(44.705882%,16.078431%,70.980392%);fill-opacity:1;" d="M 90.847656 49.210938 C 90.847656 49.210938 95.804688 45.679688 94.003906 44.933594 C 92.203125 44.183594 90.847656 49.210938 90.847656 49.210938 Z M 90.847656 49.210938 "/>
<path style=" stroke:none;fill-rule:nonzero;fill:rgb(44.705882%,16.078431%,70.980392%);fill-opacity:1;" d="M 87.203125 50.640625 C 87.203125 50.640625 91.085938 54.820312 91.5625 53.054688 C 92.039062 51.292969 87.203125 50.640625 87.203125 50.640625 Z M 87.203125 50.640625 "/>
<path style=" stroke:none;fill-rule:nonzero;fill:rgb(44.705882%,16.078431%,70.980392%);fill-opacity:1;" d="M 87.246094 50.742188 C 87.246094 50.742188 91.425781 46.863281 89.664062 46.386719 C 87.898438 45.910156 87.246094 50.742188 87.246094 50.742188 Z M 87.246094 50.742188 "/>
<path style=" stroke:none;fill-rule:nonzero;fill:rgb(44.705882%,16.078431%,70.980392%);fill-opacity:1;" d="M 83.792969 52.5 C 83.792969 52.5 88.625 55.535156 88.628906 53.710938 C 88.632812 51.882812 83.792969 52.5 83.792969 52.5 Z M 83.792969 52.5 "/>
<path style=" stroke:none;fill-rule:nonzero;fill:rgb(44.705882%,16.078431%,70.980392%);fill-opacity:1;" d="M 83.859375 52.527344 C 83.859375 52.527344 86.894531 47.695312 85.070312 47.691406 C 83.242188 47.6875 83.859375 52.527344 83.859375 52.527344 Z M 83.859375 52.527344 "/>
<path style=" stroke:none;fill-rule:nonzero;fill:rgb(44.705882%,16.078431%,70.980392%);fill-opacity:1;" d="M 80.875 54.480469 C 80.875 54.480469 85.0625 57.113281 85.066406 55.53125 C 85.070312 53.945312 80.875 54.480469 80.875 54.480469 Z M 80.875 54.480469 "/>
<path style=" stroke:none;fill-rule:nonzero;fill:rgb(44.705882%,16.078431%,70.980392%);fill-opacity:1;" d="M 80.976562 54.558594 C 80.976562 54.558594 83.605469 50.371094 82.023438 50.367188 C 80.4375 50.363281 80.976562 54.558594 80.976562 54.558594 Z M 80.976562 54.558594 "/>
<path style=" stroke:none;fill-rule:nonzero;fill:rgb(44.705882%,16.078431%,70.980392%);fill-opacity:1;" d="M 78.75 56.179688 C 78.75 56.179688 82.324219 58.425781 82.328125 57.074219 C 82.332031 55.722656 78.75 56.179688 78.75 56.179688 Z M 78.75 56.179688 "/>
<path style=" stroke:none;fill-rule:nonzero;fill:rgb(44.705882%,16.078431%,70.980392%);fill-opacity:1;" d="M 78.847656 56.269531 C 78.847656 56.269531 81.09375 52.695312 79.742188 52.691406 C 78.386719 52.6875 78.847656 56.269531 78.847656 56.269531 Z M 78.847656 56.269531 "/>
<path style=" stroke:none;fill-rule:nonzero;fill:rgb(44.705882%,16.078431%,70.980392%);fill-opacity:1;" d="M 98.9375 47.289062 C 98.9375 47.289062 106.113281 47.648438 106 46.234375 C 105.890625 44.820312 98.9375 47.289062 98.9375 47.289062 Z M 98.9375 47.289062 "/>
<path style="fill:none;stroke-width:1;stroke-linecap:butt;stroke-linejoin:miter;stroke:rgb(44.705882%,16.078431%,70.980392%);stroke-opacity:1;stroke-miterlimit:10;" d="M 502.441406 235.429688 C 502.441406 235.429688 420.039062 238.90625 371.464844 306.699219 " transform="matrix(0.2,0,0,0.2,0,0)"/>
<path style=" stroke:none;fill-rule:nonzero;fill:rgb(44.705882%,16.078431%,70.980392%);fill-opacity:1;" d="M 63.265625 63.242188 C 63.515625 63.132812 61.441406 57.035156 61.304688 56.714844 C 59.292969 51.898438 56.289062 47.976562 52.652344 45.441406 C 45.933594 40.753906 38.085938 41.230469 30.550781 43.03125 C 31.484375 43.054688 32.332031 43.644531 33.09375 44.304688 C 38.097656 48.644531 40.75 56.5625 45.90625 60.59375 C 50.902344 64.5 57.433594 65.75 63.265625 63.242188 Z M 63.265625 63.242188 "/>
<path style="fill:none;stroke-width:1;stroke-linecap:round;stroke-linejoin:round;stroke:rgb(100%,100%,100%);stroke-opacity:1;stroke-miterlimit:10;" d="M 301.386719 309.589844 C 301.386719 309.589844 255.078125 229.863281 171.953125 218.925781 " transform="matrix(0.2,0,0,0.2,0,0)"/>
<path style="fill:none;stroke-width:1;stroke-linecap:round;stroke-linejoin:round;stroke:rgb(100%,100%,100%);stroke-opacity:1;stroke-miterlimit:10;" d="M 226.152344 216.5625 L 234.589844 241.816406 L 192.773438 243.59375 " transform="matrix(0.2,0,0,0.2,0,0)"/>
<path style="fill:none;stroke-width:1;stroke-linecap:round;stroke-linejoin:round;stroke:rgb(100%,100%,100%);stroke-opacity:1;stroke-miterlimit:10;" d="M 258.164062 237.558594 L 266.386719 266.738281 L 231.230469 268.574219 " transform="matrix(0.2,0,0,0.2,0,0)"/>
<path style="fill:none;stroke-width:1;stroke-linecap:round;stroke-linejoin:round;stroke:rgb(100%,100%,100%);stroke-opacity:1;stroke-miterlimit:10;" d="M 286.640625 264.414062 L 291.152344 294.511719 L 255.546875 291.269531 " transform="matrix(0.2,0,0,0.2,0,0)"/>
<path style="fill-rule:nonzero;fill:rgb(98.039216%,67.843137%,23.137255%);fill-opacity:1;stroke-width:1;stroke-linecap:butt;stroke-linejoin:miter;stroke:rgb(41.568627%,14.901961%,65.882353%);stroke-opacity:1;stroke-miterlimit:10;" d="M 326.796875 308.554688 L 321.074219 323.105469 L 283.242188 419.199219 L 279.316406 404.960938 L 275.117188 361.09375 L 291.289062 313.300781 Z M 326.796875 308.554688 " transform="matrix(0.2,0,0,0.2,0,0)"/>
<use xlink:href="#surface11" mask="url(#mask2)"/>
<path style="fill-rule:nonzero;fill:rgb(98.039216%,67.843137%,23.137255%);fill-opacity:1;stroke-width:1;stroke-linecap:butt;stroke-linejoin:miter;stroke:rgb(41.568627%,14.901961%,65.882353%);stroke-opacity:1;stroke-miterlimit:10;" d="M 455.996094 378.144531 L 450.996094 403.28125 L 447.832031 419.199219 L 410 323.105469 L 404.257812 308.554688 L 439.765625 313.300781 Z M 455.996094 378.144531 " transform="matrix(0.2,0,0,0.2,0,0)"/>
<use xlink:href="#surface14" mask="url(#mask3)"/>
<path style=" stroke:none;fill-rule:nonzero;fill:rgb(96.078431%,87.843137%,45.098039%);fill-opacity:1;" d="M 64.660156 75.726562 C 64.636719 75.726562 64.609375 75.714844 64.59375 75.699219 C 64.574219 75.679688 64.5625 75.652344 64.5625 75.628906 C 64.5625 75.464844 64.558594 75.304688 64.550781 75.144531 L 64.546875 74.902344 L 64.539062 74.761719 C 64.535156 74.679688 64.535156 74.59375 64.527344 74.511719 C 64.519531 74.324219 64.507812 74.140625 64.5 73.953125 C 64.476562 73.621094 64.449219 73.289062 64.421875 72.957031 L 64.417969 72.90625 C 64.414062 72.871094 64.410156 72.835938 64.40625 72.796875 L 64.402344 72.578125 L 64.398438 72.460938 C 64.394531 72.375 64.390625 72.289062 64.382812 72.203125 L 64.355469 71.644531 C 64.332031 71.308594 64.304688 70.980469 64.277344 70.648438 L 64.253906 70.363281 L 64.21875 70.039062 C 64.207031 69.929688 64.199219 69.835938 64.1875 69.742188 L 64.171875 69.605469 C 64.160156 69.492188 64.148438 69.378906 64.132812 69.261719 L 64.117188 69.148438 L 64.082031 68.851562 C 64.070312 68.753906 64.058594 68.660156 64.042969 68.566406 L 64.035156 68.511719 C 64.023438 68.429688 64.011719 68.351562 64.003906 68.277344 L 63.945312 67.898438 C 63.9375 67.835938 63.929688 67.777344 63.917969 67.71875 C 63.90625 67.621094 63.890625 67.535156 63.875 67.445312 C 63.832031 67.171875 63.789062 66.910156 63.746094 66.652344 C 63.734375 66.578125 63.722656 66.507812 63.707031 66.4375 C 63.679688 66.277344 63.652344 66.117188 63.621094 65.964844 L 63.601562 65.847656 C 63.578125 65.738281 63.554688 65.625 63.535156 65.515625 C 63.488281 65.277344 63.441406 65.046875 63.394531 64.828125 C 60.757812 64.574219 57.835938 63.238281 57.804688 63.226562 C 57.757812 63.203125 57.734375 63.144531 57.757812 63.09375 L 61.363281 54.859375 C 62.179688 53.558594 65.398438 52.558594 67.953125 51.945312 C 69.238281 51.636719 70.265625 51.453125 70.488281 51.414062 C 70.5 51.40625 70.511719 51.402344 70.527344 51.402344 C 70.53125 51.402344 73.171875 51.644531 73.171875 51.644531 C 73.171875 51.644531 75.886719 51.402344 75.890625 51.402344 C 75.90625 51.402344 75.921875 51.40625 75.933594 51.414062 C 76.453125 51.503906 83.765625 52.800781 85.046875 54.847656 L 88.660156 63.09375 C 88.679688 63.144531 88.660156 63.203125 88.609375 63.226562 C 88.578125 63.238281 85.558594 64.621094 82.890625 64.839844 C 81.75 69.222656 81.816406 75.300781 81.816406 75.363281 C 81.816406 75.417969 81.773438 75.464844 81.71875 75.464844 L 79.207031 75.503906 L 75.417969 75.5625 L 71.007812 75.632812 L 70.484375 75.636719 C 70.484375 75.636719 64.664062 75.726562 64.660156 75.726562 Z M 64.660156 75.726562 "/>
<path style=" stroke:none;fill-rule:nonzero;fill:rgb(41.568627%,14.901961%,65.882353%);fill-opacity:1;" d="M 75.890625 51.503906 L 75.890625 51.507812 C 75.914062 51.511719 83.675781 52.84375 84.960938 54.898438 L 88.566406 63.136719 C 88.566406 63.136719 85.511719 64.542969 82.808594 64.746094 C 81.632812 69.195312 81.714844 75.363281 81.714844 75.363281 L 79.203125 75.402344 L 75.417969 75.464844 L 71.007812 75.53125 L 70.484375 75.535156 L 68.179688 75.574219 L 64.660156 75.628906 C 64.660156 75.464844 64.65625 75.300781 64.652344 75.140625 C 64.648438 75.054688 64.648438 74.96875 64.644531 74.886719 C 64.640625 74.757812 64.636719 74.632812 64.628906 74.507812 C 64.617188 74.320312 64.609375 74.136719 64.601562 73.949219 C 64.574219 73.613281 64.550781 73.277344 64.519531 72.949219 C 64.515625 72.898438 64.511719 72.847656 64.507812 72.796875 C 64.507812 72.722656 64.503906 72.644531 64.503906 72.574219 C 64.496094 72.445312 64.492188 72.324219 64.484375 72.195312 C 64.472656 72.011719 64.464844 71.824219 64.453125 71.640625 C 64.433594 71.304688 64.40625 70.972656 64.375 70.640625 C 64.367188 70.542969 64.359375 70.449219 64.351562 70.351562 C 64.339844 70.246094 64.328125 70.136719 64.316406 70.027344 C 64.308594 69.929688 64.296875 69.828125 64.285156 69.730469 C 64.269531 69.566406 64.253906 69.410156 64.230469 69.25 C 64.226562 69.210938 64.222656 69.171875 64.214844 69.132812 C 64.203125 69.03125 64.191406 68.9375 64.179688 68.839844 C 64.167969 68.742188 64.15625 68.644531 64.140625 68.550781 C 64.128906 68.453125 64.113281 68.355469 64.101562 68.261719 C 64.089844 68.167969 64.074219 68.074219 64.058594 67.980469 C 64.046875 67.886719 64.035156 67.792969 64.019531 67.699219 C 64.003906 67.605469 63.988281 67.515625 63.972656 67.425781 C 63.933594 67.15625 63.886719 66.894531 63.84375 66.636719 C 63.832031 66.5625 63.820312 66.492188 63.804688 66.417969 C 63.773438 66.21875 63.734375 66.023438 63.699219 65.832031 C 63.675781 65.71875 63.652344 65.605469 63.632812 65.496094 C 63.578125 65.230469 63.527344 64.976562 63.476562 64.734375 C 60.808594 64.5 57.847656 63.136719 57.847656 63.136719 L 61.453125 54.898438 C 62.257812 53.617188 65.585938 52.613281 67.976562 52.039062 C 69.414062 51.699219 70.515625 51.507812 70.523438 51.507812 L 70.527344 51.503906 L 70.585938 51.507812 L 73.160156 51.742188 L 75.890625 51.503906 M 70.527344 51.304688 C 70.5 51.304688 70.476562 51.308594 70.453125 51.316406 C 70.195312 51.363281 69.179688 51.550781 67.933594 51.847656 C 65.355469 52.464844 62.109375 53.476562 61.285156 54.792969 C 61.28125 54.800781 61.273438 54.808594 61.269531 54.820312 L 57.664062 63.054688 C 57.621094 63.15625 57.664062 63.269531 57.765625 63.316406 C 57.882812 63.371094 60.679688 64.648438 63.3125 64.921875 C 63.351562 65.117188 63.394531 65.320312 63.4375 65.535156 C 63.457031 65.648438 63.480469 65.757812 63.5 65.867188 L 63.523438 65.988281 C 63.554688 66.140625 63.582031 66.296875 63.609375 66.453125 C 63.625 66.527344 63.636719 66.59375 63.648438 66.667969 C 63.691406 66.925781 63.734375 67.1875 63.777344 67.457031 C 63.792969 67.550781 63.804688 67.636719 63.820312 67.730469 C 63.832031 67.792969 63.839844 67.851562 63.847656 67.910156 L 63.863281 68.007812 L 63.882812 68.152344 L 63.90625 68.292969 C 63.914062 68.371094 63.925781 68.453125 63.9375 68.535156 L 63.945312 68.578125 C 63.957031 68.671875 63.96875 68.765625 63.980469 68.863281 L 63.992188 68.960938 L 64.019531 69.15625 C 64.019531 69.179688 64.023438 69.199219 64.027344 69.21875 C 64.027344 69.238281 64.03125 69.257812 64.035156 69.28125 C 64.046875 69.386719 64.058594 69.5 64.074219 69.613281 L 64.085938 69.75 C 64.097656 69.84375 64.109375 69.933594 64.117188 70.027344 L 64.121094 70.050781 C 64.125 70.105469 64.128906 70.15625 64.136719 70.210938 C 64.140625 70.265625 64.148438 70.320312 64.152344 70.375 L 64.164062 70.519531 L 64.175781 70.65625 C 64.207031 70.988281 64.234375 71.324219 64.253906 71.652344 L 64.285156 72.207031 C 64.289062 72.292969 64.292969 72.378906 64.296875 72.460938 L 64.300781 72.585938 L 64.308594 72.746094 L 64.308594 72.800781 C 64.308594 72.839844 64.3125 72.878906 64.316406 72.914062 L 64.320312 72.964844 C 64.347656 73.261719 64.375 73.585938 64.402344 73.964844 C 64.410156 74.144531 64.417969 74.332031 64.429688 74.519531 C 64.433594 74.601562 64.4375 74.6875 64.441406 74.773438 L 64.445312 74.894531 L 64.453125 75.144531 C 64.460938 75.324219 64.460938 75.484375 64.460938 75.628906 C 64.460938 75.679688 64.484375 75.730469 64.523438 75.769531 C 64.558594 75.804688 64.609375 75.828125 64.664062 75.828125 L 68.183594 75.773438 L 70.488281 75.738281 L 71.007812 75.730469 L 75.421875 75.664062 L 79.207031 75.601562 L 81.71875 75.566406 C 81.828125 75.5625 81.917969 75.472656 81.917969 75.363281 C 81.914062 75.300781 81.851562 69.296875 82.96875 64.933594 C 85.636719 64.695312 88.527344 63.375 88.652344 63.316406 C 88.75 63.269531 88.796875 63.15625 88.75 63.054688 L 85.144531 54.820312 C 85.140625 54.808594 85.136719 54.800781 85.132812 54.792969 C 83.832031 52.71875 76.535156 51.414062 75.957031 51.316406 C 75.933594 51.308594 75.914062 51.304688 75.890625 51.304688 C 75.882812 51.304688 75.878906 51.304688 75.871094 51.304688 L 73.164062 51.542969 L 70.605469 51.308594 L 70.546875 51.304688 C 70.539062 51.304688 70.53125 51.304688 70.527344 51.304688 Z M 70.527344 51.304688 "/>
<path style=" stroke:none;fill-rule:nonzero;fill:rgb(89.019608%,78.823529%,25.098039%);fill-opacity:1;" d="M 75.417969 75.464844 L 71.007812 75.53125 L 70.484375 75.535156 L 64.660156 75.628906 C 64.660156 75.464844 64.65625 75.300781 64.652344 75.140625 C 64.648438 75.054688 64.648438 74.96875 64.644531 74.886719 C 64.640625 74.757812 64.636719 74.632812 64.628906 74.507812 C 64.617188 74.320312 64.609375 74.136719 64.601562 73.949219 C 64.574219 73.613281 64.550781 73.277344 64.519531 72.949219 C 64.515625 72.898438 64.511719 72.847656 64.507812 72.796875 C 64.507812 72.722656 64.503906 72.644531 64.503906 72.574219 C 64.496094 72.445312 64.492188 72.324219 64.484375 72.195312 C 64.472656 72.011719 64.464844 71.824219 64.453125 71.640625 C 64.433594 71.304688 64.40625 70.972656 64.375 70.640625 C 64.367188 70.542969 64.359375 70.449219 64.351562 70.351562 C 64.339844 70.246094 64.328125 70.136719 64.316406 70.027344 C 64.308594 69.929688 64.296875 69.828125 64.285156 69.730469 C 64.269531 69.566406 64.253906 69.410156 64.230469 69.25 C 64.226562 69.210938 64.222656 69.171875 64.214844 69.132812 C 64.203125 69.03125 64.191406 68.9375 64.179688 68.839844 C 64.167969 68.742188 64.15625 68.644531 64.140625 68.550781 C 64.128906 68.453125 64.113281 68.355469 64.101562 68.261719 C 64.089844 68.167969 64.074219 68.074219 64.058594 67.980469 C 64.046875 67.886719 64.035156 67.792969 64.019531 67.699219 C 64.003906 67.605469 63.988281 67.515625 63.972656 67.425781 C 63.933594 67.15625 63.886719 66.894531 63.84375 66.636719 C 63.832031 66.5625 63.820312 66.492188 63.804688 66.417969 C 63.773438 66.21875 63.734375 66.023438 63.699219 65.832031 C 63.675781 65.71875 63.652344 65.605469 63.632812 65.496094 C 63.578125 65.230469 63.527344 64.976562 63.476562 64.734375 C 63.476562 64.734375 69.132812 72.011719 75.417969 75.464844 Z M 75.417969 75.464844 "/>
<path style=" stroke:none;fill-rule:nonzero;fill:rgb(98.039216%,67.843137%,23.137255%);fill-opacity:1;" d="M 75.890625 45.984375 L 75.890625 52.039062 C 75.890625 52.039062 75.257812 52.515625 73.820312 52.601562 C 73.683594 52.609375 73.53125 52.613281 73.375 52.613281 C 72.378906 52.613281 71.644531 52.457031 71.171875 52.308594 C 70.742188 52.171875 70.527344 52.039062 70.527344 52.039062 L 70.527344 46.628906 Z M 75.890625 45.984375 "/>
<use xlink:href="#surface17" mask="url(#mask4)"/>
<path style="fill:none;stroke-width:1;stroke-linecap:round;stroke-linejoin:round;stroke:rgb(41.568627%,14.901961%,65.882353%);stroke-opacity:1;stroke-miterlimit:10;" d="M 352.636719 260.214844 L 352.636719 233.144531 L 379.453125 229.921875 L 379.453125 260.214844 " transform="matrix(0.2,0,0,0.2,0,0)"/>
<path style="fill-rule:nonzero;fill:rgb(98.039216%,67.843137%,23.137255%);fill-opacity:1;stroke-width:1;stroke-linecap:butt;stroke-linejoin:miter;stroke:rgb(41.568627%,14.901961%,65.882353%);stroke-opacity:1;stroke-miterlimit:10;" d="M 333.730469 200.976562 C 334.0625 205.683594 332.167969 209.667969 329.492188 209.863281 C 326.816406 210.039062 324.375 206.386719 324.023438 201.660156 C 323.691406 196.953125 325.585938 192.96875 328.261719 192.773438 C 330.9375 192.597656 333.378906 196.25 333.730469 200.976562 Z M 333.730469 200.976562 " transform="matrix(0.2,0,0,0.2,0,0)"/>
<use xlink:href="#surface20" mask="url(#mask5)"/>
<path style="fill-rule:nonzero;fill:rgb(98.039216%,67.843137%,23.137255%);fill-opacity:1;stroke-width:1;stroke-linecap:butt;stroke-linejoin:miter;stroke:rgb(41.568627%,14.901961%,65.882353%);stroke-opacity:1;stroke-miterlimit:10;" d="M 397.695312 200.976562 C 397.363281 205.683594 399.257812 209.667969 401.933594 209.863281 C 404.609375 210.039062 407.050781 206.386719 407.382812 201.660156 C 407.734375 196.953125 405.839844 192.96875 403.164062 192.773438 C 400.488281 192.597656 398.046875 196.25 397.695312 200.976562 Z M 397.695312 200.976562 " transform="matrix(0.2,0,0,0.2,0,0)"/>
<use xlink:href="#surface23" mask="url(#mask6)"/>
<path style=" stroke:none;fill-rule:nonzero;fill:rgb(98.039216%,67.843137%,23.137255%);fill-opacity:1;" d="M 73.367188 48.632812 C 72.789062 48.632812 72.21875 48.558594 71.667969 48.410156 C 71.253906 48.304688 70.855469 48.15625 70.484375 47.980469 C 70.347656 47.914062 70.226562 47.851562 70.113281 47.789062 C 69.929688 47.6875 69.738281 47.566406 69.527344 47.417969 C 67.859375 46.25 66.691406 44.316406 66.144531 41.828125 C 65.910156 40.722656 65.796875 39.515625 65.808594 38.230469 C 65.800781 37.921875 65.804688 37.617188 65.816406 37.328125 L 65.820312 37.296875 L 65.824219 37.292969 C 65.992188 34.230469 67.429688 31.546875 69.667969 30.109375 C 69.820312 30.011719 69.976562 29.921875 70.132812 29.839844 C 71.011719 29.355469 71.957031 29.09375 72.949219 29.070312 C 73.011719 29.066406 73.074219 29.066406 73.136719 29.066406 C 74.371094 29.066406 75.597656 29.445312 76.679688 30.15625 C 78.683594 31.472656 80.109375 33.863281 80.5 36.558594 L 80.511719 36.660156 C 80.5625 37.03125 80.597656 37.414062 80.605469 37.792969 C 80.609375 38.0625 80.609375 38.324219 80.605469 38.582031 L 80.59375 38.953125 C 80.5625 39.824219 80.476562 40.664062 80.335938 41.449219 C 79.792969 44.421875 78.425781 46.679688 76.480469 47.804688 C 76.335938 47.898438 76.167969 47.988281 75.972656 48.078125 L 75.910156 47.996094 L 75.953125 48.085938 L 75.929688 48.097656 C 75.203125 48.421875 74.410156 48.601562 73.578125 48.628906 C 73.507812 48.632812 73.4375 48.632812 73.367188 48.632812 Z M 73.367188 48.632812 "/>
<path style=" stroke:none;fill-rule:nonzero;fill:rgb(41.568627%,14.901961%,65.882353%);fill-opacity:1;" d="M 73.136719 29.167969 C 74.394531 29.167969 75.582031 29.554688 76.625 30.242188 C 78.570312 31.519531 80.003906 33.828125 80.402344 36.574219 L 80.410156 36.671875 C 80.464844 37.035156 80.496094 37.414062 80.507812 37.796875 C 80.511719 38.0625 80.511719 38.324219 80.507812 38.582031 C 80.503906 38.703125 80.496094 38.828125 80.492188 38.949219 C 80.460938 39.835938 80.375 40.664062 80.234375 41.433594 C 79.675781 44.5 78.289062 46.640625 76.433594 47.71875 C 76.269531 47.820312 76.101562 47.910156 75.929688 47.988281 C 75.914062 47.992188 75.902344 48 75.890625 48.003906 C 75.171875 48.328125 74.394531 48.503906 73.574219 48.527344 C 73.507812 48.53125 73.4375 48.53125 73.367188 48.53125 C 72.796875 48.53125 72.234375 48.460938 71.691406 48.316406 C 71.292969 48.210938 70.902344 48.070312 70.527344 47.890625 C 70.402344 47.832031 70.28125 47.769531 70.160156 47.699219 C 69.964844 47.589844 69.773438 47.46875 69.585938 47.335938 C 68.035156 46.253906 66.8125 44.414062 66.242188 41.808594 C 66.019531 40.746094 65.898438 39.554688 65.910156 38.230469 C 65.902344 37.929688 65.902344 37.628906 65.917969 37.332031 C 65.917969 37.328125 65.917969 37.328125 65.921875 37.320312 C 66.085938 34.234375 67.570312 31.574219 69.722656 30.195312 C 69.871094 30.097656 70.023438 30.007812 70.179688 29.925781 C 71.023438 29.460938 71.957031 29.195312 72.949219 29.167969 C 73.011719 29.167969 73.074219 29.167969 73.136719 29.167969 M 73.136719 28.964844 C 73.070312 28.964844 73.007812 28.96875 72.945312 28.96875 C 71.941406 28.996094 70.976562 29.257812 70.082031 29.75 C 69.929688 29.832031 69.769531 29.925781 69.613281 30.027344 C 67.351562 31.480469 65.898438 34.191406 65.722656 37.28125 C 65.71875 37.296875 65.71875 37.3125 65.71875 37.332031 C 65.703125 37.613281 65.703125 37.921875 65.710938 38.234375 C 65.699219 39.519531 65.8125 40.738281 66.046875 41.847656 C 66.597656 44.363281 67.78125 46.320312 69.46875 47.5 C 69.683594 47.648438 69.878906 47.773438 70.066406 47.875 C 70.179688 47.941406 70.300781 48.003906 70.441406 48.070312 C 70.816406 48.25 71.222656 48.398438 71.640625 48.507812 C 72.199219 48.65625 72.78125 48.730469 73.367188 48.730469 C 73.4375 48.730469 73.511719 48.730469 73.582031 48.730469 C 74.425781 48.703125 75.230469 48.519531 75.972656 48.1875 L 75.992188 48.175781 L 76.007812 48.171875 C 76.214844 48.078125 76.386719 47.984375 76.539062 47.886719 C 78.5 46.75 79.886719 44.46875 80.433594 41.46875 C 80.574219 40.679688 80.664062 39.832031 80.695312 38.957031 L 80.707031 38.585938 C 80.710938 38.328125 80.710938 38.0625 80.707031 37.792969 C 80.695312 37.40625 80.664062 37.019531 80.609375 36.644531 L 80.601562 36.554688 C 80.207031 33.824219 78.761719 31.402344 76.734375 30.074219 C 75.636719 29.347656 74.390625 28.964844 73.136719 28.964844 Z M 73.136719 28.964844 "/>
<path style="fill:none;stroke-width:1;stroke-linecap:round;stroke-linejoin:round;stroke:rgb(41.568627%,14.901961%,65.882353%);stroke-opacity:1;stroke-miterlimit:10;" d="M 364.824219 196.816406 C 364.824219 196.816406 367.285156 205.234375 365.253906 210.019531 C 364.863281 210.9375 365.429688 211.953125 366.425781 212.050781 C 367.96875 212.207031 370.195312 211.972656 372.597656 210.253906 " transform="matrix(0.2,0,0,0.2,0,0)"/>
<path style="fill:none;stroke-width:1;stroke-linecap:round;stroke-linejoin:round;stroke:rgb(41.568627%,14.901961%,65.882353%);stroke-opacity:1;stroke-miterlimit:10;" d="M 364.335938 219.785156 C 364.335938 219.785156 371.914062 223.085938 378.105469 216.5625 " transform="matrix(0.2,0,0,0.2,0,0)"/>
<path style="fill:none;stroke-width:1;stroke-linecap:round;stroke-linejoin:round;stroke:rgb(41.568627%,14.901961%,65.882353%);stroke-opacity:1;stroke-miterlimit:10;" d="M 376.777344 185.546875 C 376.777344 185.546875 383.378906 183.613281 386.542969 186.464844 " transform="matrix(0.2,0,0,0.2,0,0)"/>
<path style="fill:none;stroke-width:1;stroke-linecap:round;stroke-linejoin:round;stroke:rgb(41.568627%,14.901961%,65.882353%);stroke-opacity:1;stroke-miterlimit:10;" d="M 347.636719 185.546875 C 347.636719 185.546875 354.238281 183.613281 357.421875 186.464844 " transform="matrix(0.2,0,0,0.2,0,0)"/>
<use xlink:href="#surface26" mask="url(#mask7)"/>
<use xlink:href="#surface29" mask="url(#mask8)"/>
<path style=" stroke:none;fill-rule:nonzero;fill:rgb(44.705882%,16.078431%,70.980392%);fill-opacity:1;" d="M 76.503906 38.8125 C 76.503906 39.320312 76.226562 39.746094 75.890625 39.769531 C 75.550781 39.789062 75.273438 39.398438 75.273438 38.894531 C 75.273438 38.386719 75.550781 37.960938 75.890625 37.9375 C 76.230469 37.917969 76.503906 38.308594 76.503906 38.8125 Z M 76.503906 38.8125 "/>
<path style=" stroke:none;fill-rule:nonzero;fill:rgb(44.705882%,16.078431%,70.980392%);fill-opacity:1;" d="M 71.339844 38.78125 C 71.367188 39.285156 71.117188 39.726562 70.777344 39.769531 C 70.441406 39.808594 70.144531 39.433594 70.117188 38.925781 C 70.089844 38.421875 70.34375 37.980469 70.679688 37.941406 C 71.019531 37.902344 71.3125 38.277344 71.339844 38.78125 Z M 71.339844 38.78125 "/>
<path style=" stroke:none;fill-rule:nonzero;fill:rgb(44.705882%,16.078431%,70.980392%);fill-opacity:1;" d="M 69.367188 51.167969 C 69.359375 51.167969 69.351562 51.167969 69.34375 51.164062 C 69.253906 51.144531 67.105469 50.597656 65.535156 47.980469 C 63.601562 44.757812 63.433594 39.984375 65.035156 33.785156 C 65.148438 33.347656 65.273438 32.914062 65.402344 32.5 C 65.429688 32.394531 65.457031 32.285156 65.492188 32.179688 C 65.855469 30.949219 66.347656 29.886719 66.953125 29.011719 C 67.570312 28.058594 68.277344 27.378906 69.046875 27 C 70.066406 26.386719 71.265625 26.070312 72.613281 26.070312 C 73.207031 26.070312 73.835938 26.132812 74.492188 26.253906 C 74.492188 26.226562 74.488281 26.199219 74.488281 26.171875 C 74.488281 24.765625 75.632812 23.621094 77.039062 23.621094 C 78.445312 23.621094 79.585938 24.765625 79.585938 26.171875 C 79.585938 27.0625 79.121094 27.882812 78.367188 28.34375 C 81.605469 31.894531 80.738281 38.503906 80.730469 38.570312 C 80.726562 38.597656 80.710938 38.621094 80.6875 38.640625 C 80.671875 38.652344 80.652344 38.65625 80.632812 38.65625 C 80.625 38.65625 80.617188 38.65625 80.609375 38.652344 C 80.570312 38.644531 76.945312 37.726562 76.453125 33.152344 C 76.003906 34.453125 74.195312 37.164062 66.957031 38.515625 C 66.558594 42.640625 66.675781 48.125 69.441406 51 C 69.472656 51.03125 69.476562 51.078125 69.453125 51.117188 C 69.4375 51.148438 69.402344 51.167969 69.367188 51.167969 Z M 69.367188 51.167969 "/>
<path style=" stroke:none;fill-rule:nonzero;fill:rgb(41.568627%,14.901961%,65.882353%);fill-opacity:1;" d="M 77.039062 23.722656 C 78.390625 23.722656 79.488281 24.820312 79.488281 26.171875 C 79.488281 27.097656 78.96875 27.90625 78.207031 28.320312 C 81.550781 31.851562 80.632812 38.554688 80.632812 38.554688 C 80.632812 38.554688 76.671875 37.613281 76.503906 32.429688 C 76.503906 32.429688 76.488281 36.652344 66.863281 38.433594 C 66.46875 42.460938 66.515625 48.105469 69.367188 51.070312 C 69.367188 51.070312 61.183594 49.089844 65.132812 33.808594 C 65.25 33.355469 65.371094 32.929688 65.5 32.527344 C 65.527344 32.421875 65.554688 32.3125 65.585938 32.207031 C 65.933594 31.046875 66.40625 29.976562 67.035156 29.070312 C 67.675781 28.078125 68.371094 27.445312 69.09375 27.089844 C 70.058594 26.507812 71.222656 26.171875 72.613281 26.171875 C 73.210938 26.171875 73.855469 26.234375 74.542969 26.363281 C 74.5625 26.367188 74.582031 26.375 74.601562 26.378906 C 74.59375 26.308594 74.589844 26.242188 74.589844 26.171875 C 74.589844 24.820312 75.6875 23.722656 77.039062 23.722656 M 77.039062 23.523438 C 75.589844 23.523438 74.410156 24.691406 74.390625 26.132812 C 73.773438 26.027344 73.175781 25.972656 72.613281 25.972656 C 71.25 25.972656 70.035156 26.289062 68.996094 26.914062 C 68.210938 27.304688 67.492188 27.992188 66.867188 28.960938 C 66.261719 29.835938 65.761719 30.914062 65.394531 32.148438 C 65.363281 32.25 65.335938 32.355469 65.304688 32.476562 C 65.175781 32.890625 65.050781 33.324219 64.941406 33.761719 C 63.332031 39.984375 63.5 44.789062 65.449219 48.03125 C 67.039062 50.6875 69.226562 51.242188 69.320312 51.261719 C 69.335938 51.265625 69.351562 51.269531 69.367188 51.269531 C 69.4375 51.269531 69.503906 51.230469 69.539062 51.167969 C 69.585938 51.089844 69.574219 50.992188 69.511719 50.929688 C 66.789062 48.101562 66.664062 42.695312 67.050781 38.601562 C 71.003906 37.851562 73.828125 36.609375 75.4375 34.902344 C 75.917969 34.394531 76.214844 33.917969 76.398438 33.519531 C 76.710938 35.609375 77.679688 36.871094 78.5 37.585938 C 79.535156 38.492188 80.542969 38.742188 80.585938 38.75 C 80.601562 38.753906 80.617188 38.757812 80.632812 38.757812 C 80.671875 38.757812 80.710938 38.746094 80.746094 38.722656 C 80.792969 38.6875 80.820312 38.640625 80.828125 38.582031 C 80.867188 38.308594 81.695312 31.960938 78.519531 28.367188 C 79.246094 27.875 79.6875 27.054688 79.6875 26.171875 C 79.6875 24.710938 78.5 23.523438 77.039062 23.523438 Z M 77.039062 23.523438 "/>
<path style=" stroke:none;fill-rule:nonzero;fill:rgb(44.705882%,16.078431%,70.980392%);fill-opacity:1;" d="M 54.300781 90.332031 C 54.246094 90.332031 54.203125 90.285156 54.203125 90.230469 L 54.203125 67.84375 C 54.203125 67.789062 54.246094 67.746094 54.300781 67.746094 L 92.34375 67.746094 C 92.402344 67.746094 92.445312 67.789062 92.445312 67.84375 L 92.445312 90.230469 C 92.445312 90.285156 92.402344 90.332031 92.34375 90.332031 Z M 54.300781 90.332031 "/>
<path style=" stroke:none;fill-rule:nonzero;fill:rgb(41.568627%,14.901961%,65.882353%);fill-opacity:1;" d="M 92.34375 67.84375 L 92.34375 90.230469 L 54.300781 90.230469 L 54.300781 67.84375 L 92.34375 67.84375 M 92.34375 67.644531 L 54.300781 67.644531 C 54.191406 67.644531 54.101562 67.734375 54.101562 67.84375 L 54.101562 90.230469 C 54.101562 90.339844 54.191406 90.429688 54.300781 90.429688 L 92.34375 90.429688 C 92.457031 90.429688 92.546875 90.339844 92.546875 90.230469 L 92.546875 67.84375 C 92.546875 67.734375 92.457031 67.644531 92.34375 67.644531 Z M 92.34375 67.644531 "/>
<path style=" stroke:none;fill-rule:nonzero;fill:rgb(92.941176%,92.941176%,92.941176%);fill-opacity:1;" d="M 41.773438 90.28125 C 41.722656 90.28125 41.679688 90.246094 41.671875 90.199219 C 41.277344 87.898438 40.238281 81.875 40.175781 81.675781 C 40.167969 81.644531 40.171875 81.613281 40.191406 81.585938 C 40.210938 81.5625 40.238281 81.546875 40.273438 81.546875 L 48.742188 81.546875 C 48.773438 81.546875 48.800781 81.558594 48.820312 81.582031 C 48.839844 81.605469 48.847656 81.632812 48.84375 81.664062 L 47.324219 89.628906 C 47.324219 89.636719 47.320312 89.644531 47.320312 89.648438 L 47.214844 90.203125 C 47.207031 90.25 47.164062 90.28125 47.117188 90.28125 Z M 41.773438 90.28125 "/>
<path style=" stroke:none;fill-rule:nonzero;fill:rgb(41.568627%,14.901961%,65.882353%);fill-opacity:1;" d="M 48.742188 81.644531 L 47.226562 89.609375 L 47.222656 89.609375 L 47.117188 90.183594 L 41.773438 90.183594 C 41.773438 90.183594 40.339844 81.839844 40.273438 81.644531 L 48.742188 81.644531 M 48.742188 81.445312 L 40.273438 81.445312 C 40.207031 81.445312 40.148438 81.476562 40.109375 81.527344 C 40.070312 81.582031 40.0625 81.648438 40.082031 81.710938 C 40.140625 81.925781 41.007812 86.917969 41.574219 90.21875 C 41.589844 90.3125 41.675781 90.382812 41.773438 90.382812 L 47.117188 90.382812 C 47.210938 90.382812 47.292969 90.316406 47.3125 90.21875 L 47.414062 89.675781 C 47.417969 89.667969 47.421875 89.65625 47.421875 89.648438 L 48.941406 81.683594 C 48.953125 81.625 48.9375 81.5625 48.898438 81.515625 C 48.859375 81.472656 48.804688 81.445312 48.742188 81.445312 Z M 48.742188 81.84375 L 48.746094 81.84375 Z M 48.742188 81.84375 "/>
<path style=" stroke:none;fill-rule:nonzero;fill:rgb(44.705882%,16.078431%,70.980392%);fill-opacity:1;" d="M 44.410156 85.46875 C 44.082031 84.730469 44.167969 84.066406 44.300781 83.625 C 43.421875 83.664062 42.71875 84.527344 42.71875 85.585938 C 42.71875 86.671875 43.457031 87.554688 44.363281 87.554688 C 44.386719 87.554688 44.414062 87.550781 44.4375 87.546875 C 44.609375 87.027344 44.75 86.234375 44.410156 85.46875 Z M 44.410156 85.46875 "/>
<path style=" stroke:none;fill-rule:nonzero;fill:rgb(44.705882%,16.078431%,70.980392%);fill-opacity:1;" d="M 46.335938 85.585938 C 46.335938 84.5 45.597656 83.621094 44.691406 83.621094 C 44.667969 83.621094 44.648438 83.625 44.628906 83.625 C 44.492188 84.066406 44.40625 84.730469 44.734375 85.46875 C 45.078125 86.234375 44.9375 87.027344 44.761719 87.546875 C 45.636719 87.503906 46.335938 86.644531 46.335938 85.585938 Z M 46.335938 85.585938 "/>
<path style=" stroke:none;fill-rule:nonzero;fill:rgb(92.941176%,92.941176%,92.941176%);fill-opacity:1;" d="M 40.273438 81.746094 C 40.234375 81.746094 40.199219 81.722656 40.183594 81.691406 C 40.167969 81.660156 40.167969 81.621094 40.1875 81.589844 L 41.007812 80.378906 L 41.945312 78.980469 C 41.964844 78.953125 41.996094 78.9375 42.03125 78.9375 L 47.183594 78.9375 C 47.21875 78.9375 47.25 78.957031 47.269531 78.984375 L 48.101562 80.382812 L 48.828125 81.59375 C 48.847656 81.625 48.847656 81.664062 48.832031 81.695312 C 48.8125 81.726562 48.78125 81.746094 48.742188 81.746094 Z M 40.273438 81.746094 "/>
<path style=" stroke:none;fill-rule:nonzero;fill:rgb(41.568627%,14.901961%,65.882353%);fill-opacity:1;" d="M 47.183594 79.035156 L 48.015625 80.433594 L 48.742188 81.644531 L 40.273438 81.644531 L 41.089844 80.433594 L 42.03125 79.035156 L 47.183594 79.035156 M 47.183594 78.835938 L 42.03125 78.835938 C 41.964844 78.835938 41.902344 78.871094 41.863281 78.925781 L 40.925781 80.320312 L 40.105469 81.53125 C 40.066406 81.59375 40.0625 81.671875 40.09375 81.738281 C 40.128906 81.804688 40.199219 81.84375 40.273438 81.84375 L 48.746094 81.84375 C 48.816406 81.84375 48.882812 81.804688 48.917969 81.742188 C 48.953125 81.679688 48.953125 81.605469 48.914062 81.542969 L 48.1875 80.328125 L 47.355469 78.933594 C 47.316406 78.875 47.253906 78.835938 47.183594 78.835938 Z M 47.183594 78.835938 "/>
<path style="fill-rule:nonzero;fill:rgb(100%,100%,100%);fill-opacity:1;stroke-width:1;stroke-linecap:round;stroke-linejoin:round;stroke:rgb(41.568627%,14.901961%,65.882353%);stroke-opacity:1;stroke-miterlimit:10;" d="M 547.956823 105.307387 C 547.956434 81.709332 528.834489 62.597167 505.236434 62.597555 C 481.638379 62.597944 462.506927 81.722977 462.507316 105.321032 C 462.504617 128.899801 481.648936 148.028164 505.227705 148.030864 C 528.82576 148.030475 547.957211 128.905442 547.956823 105.307387 Z M 547.956823 105.307387 " transform="matrix(0.03162,-0.19748,0.19748,0.03162,64.27594,117.5096)"/>
<path style="fill:none;stroke-width:1;stroke-linecap:round;stroke-linejoin:round;stroke:rgb(41.568627%,14.901961%,65.882353%);stroke-opacity:1;stroke-miterlimit:10;" d="M 505.234375 62.597656 L 505.234375 70.019531 " transform="matrix(0.2,0,0,0.2,0,0)"/>
<path style="fill:none;stroke-width:1;stroke-linecap:round;stroke-linejoin:round;stroke:rgb(41.568627%,14.901961%,65.882353%);stroke-opacity:1;stroke-miterlimit:10;" d="M 505.234375 139.882812 L 505.234375 147.304688 " transform="matrix(0.2,0,0,0.2,0,0)"/>
<path style="fill:none;stroke-width:1;stroke-linecap:round;stroke-linejoin:round;stroke:rgb(41.568627%,14.901961%,65.882353%);stroke-opacity:1;stroke-miterlimit:10;" d="M 462.871094 104.941406 L 470.3125 104.941406 " transform="matrix(0.2,0,0,0.2,0,0)"/>
<path style="fill:none;stroke-width:1;stroke-linecap:round;stroke-linejoin:round;stroke:rgb(41.568627%,14.901961%,65.882353%);stroke-opacity:1;stroke-miterlimit:10;" d="M 540.15625 104.941406 L 547.597656 104.941406 " transform="matrix(0.2,0,0,0.2,0,0)"/>
<path style="fill-rule:nonzero;fill:rgb(100%,100%,100%);fill-opacity:1;stroke-width:1;stroke-linecap:round;stroke-linejoin:round;stroke:rgb(41.568627%,14.901961%,65.882353%);stroke-opacity:1;stroke-miterlimit:10;" d="M 475.273438 75 L 480.546875 80.253906 " transform="matrix(0.2,0,0,0.2,0,0)"/>
<path style="fill-rule:nonzero;fill:rgb(100%,100%,100%);fill-opacity:1;stroke-width:1;stroke-linecap:round;stroke-linejoin:round;stroke:rgb(41.568627%,14.901961%,65.882353%);stroke-opacity:1;stroke-miterlimit:10;" d="M 529.941406 129.648438 L 535.195312 134.902344 " transform="matrix(0.2,0,0,0.2,0,0)"/>
<path style="fill-rule:nonzero;fill:rgb(100%,100%,100%);fill-opacity:1;stroke-width:1;stroke-linecap:round;stroke-linejoin:round;stroke:rgb(41.568627%,14.901961%,65.882353%);stroke-opacity:1;stroke-miterlimit:10;" d="M 475.273438 134.902344 L 480.546875 129.648438 " transform="matrix(0.2,0,0,0.2,0,0)"/>
<path style="fill-rule:nonzero;fill:rgb(100%,100%,100%);fill-opacity:1;stroke-width:1;stroke-linecap:round;stroke-linejoin:round;stroke:rgb(41.568627%,14.901961%,65.882353%);stroke-opacity:1;stroke-miterlimit:10;" d="M 529.941406 80.253906 L 535.195312 75 " transform="matrix(0.2,0,0,0.2,0,0)"/>
<path style=" stroke:none;fill-rule:nonzero;fill:rgb(41.568627%,14.901961%,65.882353%);fill-opacity:1;" d="M 101.621094 20.988281 C 101.621094 21.308594 101.363281 21.566406 101.046875 21.566406 C 100.730469 21.566406 100.472656 21.308594 100.472656 20.988281 C 100.472656 20.671875 100.730469 20.414062 101.046875 20.414062 C 101.363281 20.414062 101.621094 20.671875 101.621094 20.988281 Z M 101.621094 20.988281 "/>
<path style="fill:none;stroke-width:1;stroke-linecap:round;stroke-linejoin:round;stroke:rgb(41.568627%,14.901961%,65.882353%);stroke-opacity:1;stroke-miterlimit:10;" d="M 505.234375 75 L 505.234375 104.941406 L 521.953125 120.78125 " transform="matrix(0.2,0,0,0.2,0,0)"/>
<use xlink:href="#surface32" mask="url(#mask9)"/>
<path style="fill:none;stroke-width:1;stroke-linecap:butt;stroke-linejoin:miter;stroke:rgb(44.705882%,16.078431%,70.980392%);stroke-opacity:1;stroke-miterlimit:10;" d="M 559.53125 395.761719 C 559.53125 395.761719 563.769531 366.347656 576.855469 353.4375 " transform="matrix(0.2,0,0,0.2,0,0)"/>
<path style=" stroke:none;fill-rule:nonzero;fill:rgb(44.705882%,16.078431%,70.980392%);fill-opacity:1;" d="M 114.757812 71.371094 C 114.800781 71.347656 114.84375 71.121094 114.859375 71.078125 C 114.953125 70.816406 115.054688 70.554688 115.15625 70.296875 C 115.480469 69.5 115.847656 68.722656 116.285156 67.988281 C 116.792969 67.136719 117.417969 66.25 118.285156 65.734375 C 118.714844 65.476562 119.339844 65.347656 119.839844 65.386719 C 120.671875 65.449219 121.273438 66.15625 120.851562 66.949219 C 120.496094 67.613281 119.804688 68.042969 119.230469 68.496094 C 118.34375 69.199219 117.386719 69.820312 116.421875 70.410156 C 115.875 70.742188 115.324219 71.066406 114.757812 71.371094 Z M 114.757812 71.371094 "/>
<path style="fill:none;stroke-width:1;stroke-linecap:butt;stroke-linejoin:miter;stroke:rgb(44.705882%,16.078431%,70.980392%);stroke-opacity:1;stroke-miterlimit:10;" d="M 568.378906 408.066406 C 568.378906 408.066406 570.039062 385.117188 583.125 372.207031 " transform="matrix(0.2,0,0,0.2,0,0)"/>
<path style=" stroke:none;fill-rule:nonzero;fill:rgb(44.705882%,16.078431%,70.980392%);fill-opacity:1;" d="M 115.878906 75.277344 C 115.941406 75.242188 116.011719 74.910156 116.035156 74.84375 C 116.167969 74.484375 116.316406 74.132812 116.484375 73.789062 C 116.878906 72.949219 117.375 72.054688 118.125 71.480469 C 118.597656 71.117188 119.957031 70.742188 120.226562 71.582031 C 120.273438 71.726562 120.238281 71.882812 120.179688 72.019531 C 119.96875 72.519531 119.507812 72.859375 119.101562 73.191406 C 118.648438 73.558594 118.167969 73.886719 117.679688 74.203125 C 117.09375 74.582031 116.496094 74.945312 115.878906 75.277344 Z M 115.878906 75.277344 "/>
<path style="fill:none;stroke-width:1;stroke-linecap:butt;stroke-linejoin:miter;stroke:rgb(44.705882%,16.078431%,70.980392%);stroke-opacity:1;stroke-miterlimit:10;" d="M 539.199219 351.269531 C 539.199219 351.269531 552.714844 362.753906 558.945312 398.925781 " transform="matrix(0.2,0,0,0.2,0,0)"/>
<path style=" stroke:none;fill-rule:nonzero;fill:rgb(44.705882%,16.078431%,70.980392%);fill-opacity:1;" d="M 108.636719 71.164062 C 108.582031 71.132812 108.527344 70.921875 108.5 70.867188 C 108.375 70.597656 108.246094 70.335938 108.117188 70.070312 C 107.710938 69.261719 107.28125 68.464844 106.8125 67.695312 C 106.328125 66.902344 105.800781 66.105469 105.140625 65.445312 C 104.742188 65.050781 104.125 64.515625 103.511719 64.730469 C 103.125 64.863281 102.777344 65.328125 102.730469 65.722656 C 102.652344 66.363281 103.28125 67.019531 103.695312 67.449219 C 104.136719 67.90625 104.621094 68.324219 105.121094 68.722656 C 106.039062 69.457031 107.007812 70.128906 107.996094 70.761719 C 108.207031 70.898438 108.421875 71.035156 108.636719 71.164062 Z M 108.636719 71.164062 "/>
<path style="fill:none;stroke-width:1;stroke-linecap:butt;stroke-linejoin:miter;stroke:rgb(44.705882%,16.078431%,70.980392%);stroke-opacity:1;stroke-miterlimit:10;" d="M 553.339844 396.542969 C 553.339844 396.542969 547.539062 379.53125 555.234375 362.832031 " transform="matrix(0.2,0,0,0.2,0,0)"/>
<path style=" stroke:none;fill-rule:nonzero;fill:rgb(44.705882%,16.078431%,70.980392%);fill-opacity:1;" d="M 110.816406 73.175781 C 110.777344 72.542969 110.804688 71.902344 110.863281 71.273438 C 110.957031 70.3125 111.132812 69.132812 111.832031 68.402344 C 112.167969 68.054688 112.640625 67.875 113.125 67.933594 C 114.832031 68.132812 111.773438 71.984375 111.355469 72.515625 C 111.179688 72.738281 111 72.960938 110.816406 73.175781 Z M 110.816406 73.175781 "/>
<path style="fill:none;stroke-width:1;stroke-linecap:butt;stroke-linejoin:miter;stroke:rgb(44.705882%,16.078431%,70.980392%);stroke-opacity:1;stroke-miterlimit:10;" d="M 553.105469 395.859375 C 553.105469 395.859375 541.71875 375.878906 524.355469 369.863281 " transform="matrix(0.2,0,0,0.2,0,0)"/>
<path style=" stroke:none;fill-rule:nonzero;fill:rgb(44.705882%,16.078431%,70.980392%);fill-opacity:1;" d="M 106.609375 74.8125 C 106.539062 74.800781 106.351562 74.515625 106.308594 74.460938 C 106.050781 74.175781 105.785156 73.902344 105.503906 73.636719 C 104.582031 72.765625 103.035156 71.421875 101.6875 72.210938 C 101.535156 72.300781 101.394531 72.417969 101.296875 72.566406 C 100.808594 73.335938 101.992188 73.734375 102.519531 73.925781 C 103.082031 74.128906 103.664062 74.273438 104.246094 74.402344 C 105.023438 74.570312 105.8125 74.710938 106.601562 74.8125 C 106.605469 74.8125 106.605469 74.8125 106.609375 74.8125 Z M 106.609375 74.8125 "/>
<path style=" stroke:none;fill-rule:nonzero;fill:rgb(96.078431%,87.843137%,45.098039%);fill-opacity:1;" d="M 107.429688 77.574219 L 116.152344 77.574219 L 116.152344 89.785156 L 107.429688 89.785156 Z M 107.429688 77.574219 "/>
<path style=" stroke:none;fill-rule:nonzero;fill:rgb(41.568627%,14.901961%,65.882353%);fill-opacity:1;" d="M 116.054688 77.675781 L 116.054688 89.683594 L 107.527344 89.683594 L 107.527344 77.675781 L 116.054688 77.675781 M 116.253906 77.476562 L 107.328125 77.476562 L 107.328125 89.882812 L 116.253906 89.882812 Z M 116.253906 77.476562 "/>
<path style=" stroke:none;fill-rule:nonzero;fill:rgb(92.941176%,82.745098%,28.627451%);fill-opacity:1;" d="M 115.652344 89.683594 L 107.527344 89.683594 L 107.527344 77.675781 C 107.527344 77.675781 108.675781 88.726562 115.652344 89.683594 Z M 115.652344 89.683594 "/>
<path style=" stroke:none;fill-rule:nonzero;fill:rgb(96.078431%,87.843137%,45.098039%);fill-opacity:1;" d="M 34.394531 84.925781 C 34.371094 84.925781 34.347656 84.925781 34.324219 84.921875 C 33.988281 84.890625 33.726562 84.585938 33.726562 84.230469 L 33.726562 77.035156 C 33.726562 76.980469 33.773438 76.933594 33.828125 76.933594 L 34.957031 76.933594 C 35.011719 76.933594 35.058594 76.980469 35.058594 77.035156 L 35.058594 84.261719 C 35.058594 84.4375 34.988281 84.605469 34.863281 84.730469 C 34.738281 84.855469 34.570312 84.925781 34.394531 84.925781 Z M 34.394531 84.925781 "/>
<path style=" stroke:none;fill-rule:nonzero;fill:rgb(41.568627%,14.901961%,65.882353%);fill-opacity:1;" d="M 34.957031 77.035156 L 34.957031 84.261719 C 34.957031 84.574219 34.703125 84.824219 34.394531 84.824219 C 34.375 84.824219 34.355469 84.824219 34.335938 84.824219 C 34.039062 84.792969 33.828125 84.523438 33.828125 84.230469 L 33.828125 77.035156 L 34.957031 77.035156 M 34.957031 76.835938 L 33.828125 76.835938 C 33.71875 76.835938 33.628906 76.925781 33.628906 77.035156 L 33.628906 84.230469 C 33.628906 84.636719 33.929688 84.984375 34.3125 85.023438 C 34.339844 85.023438 34.367188 85.027344 34.394531 85.027344 C 34.8125 85.027344 35.15625 84.683594 35.15625 84.261719 L 35.15625 77.035156 C 35.15625 76.925781 35.066406 76.835938 34.957031 76.835938 Z M 34.957031 76.835938 "/>
<path style=" stroke:none;fill-rule:nonzero;fill:rgb(44.705882%,16.078431%,70.980392%);fill-opacity:1;" d="M 34.582031 76.484375 C 34.488281 76.359375 34.296875 76.359375 34.203125 76.484375 L 33.828125 76.984375 L 33.828125 77.035156 L 34.957031 77.035156 L 34.957031 76.984375 Z M 34.582031 76.484375 "/>
<path style=" stroke:none;fill-rule:nonzero;fill:rgb(44.705882%,16.078431%,70.980392%);fill-opacity:1;" d="M 32.75 77.90625 L 33.066406 78.144531 L 33.066406 79.328125 L 32.75 79.609375 Z M 32.75 77.90625 "/>
<path style=" stroke:none;fill-rule:nonzero;fill:rgb(96.078431%,87.843137%,45.098039%);fill-opacity:1;" d="M 32.183594 83.386719 C 31.816406 83.386719 31.519531 83.089844 31.519531 82.722656 L 31.519531 76.835938 L 32.847656 76.835938 L 32.847656 82.722656 C 32.847656 83.089844 32.550781 83.386719 32.183594 83.386719 Z M 32.183594 83.386719 "/>
<path style=" stroke:none;fill-rule:nonzero;fill:rgb(41.568627%,14.901961%,65.882353%);fill-opacity:1;" d="M 32.75 76.933594 L 32.75 82.722656 C 32.75 83.035156 32.496094 83.289062 32.183594 83.289062 C 31.871094 83.289062 31.621094 83.035156 31.621094 82.722656 L 31.621094 76.933594 L 32.75 76.933594 M 32.949219 76.734375 L 31.417969 76.734375 L 31.417969 82.722656 C 31.417969 83.144531 31.761719 83.488281 32.183594 83.488281 C 32.605469 83.488281 32.949219 83.144531 32.949219 82.722656 Z M 32.949219 76.734375 "/>
<path style=" stroke:none;fill-rule:nonzero;fill:rgb(96.078431%,87.843137%,45.098039%);fill-opacity:1;" d="M 31.519531 77.035156 L 31.519531 76.0625 C 31.519531 75.695312 31.816406 75.398438 32.183594 75.398438 C 32.550781 75.398438 32.847656 75.695312 32.847656 76.0625 L 32.847656 77.035156 Z M 31.519531 77.035156 "/>
<path style=" stroke:none;fill-rule:nonzero;fill:rgb(41.568627%,14.901961%,65.882353%);fill-opacity:1;" d="M 32.183594 75.496094 C 32.496094 75.496094 32.75 75.75 32.75 76.0625 L 32.75 76.933594 L 31.621094 76.933594 L 31.621094 76.0625 C 31.621094 75.75 31.871094 75.496094 32.183594 75.496094 M 32.183594 75.296875 C 31.761719 75.296875 31.421875 75.640625 31.421875 76.0625 L 31.421875 77.132812 L 32.949219 77.132812 L 32.949219 76.0625 C 32.949219 75.640625 32.605469 75.296875 32.183594 75.296875 Z M 32.183594 75.296875 "/>
<path style=" stroke:none;fill-rule:nonzero;fill:rgb(96.078431%,87.843137%,45.098039%);fill-opacity:1;" d="M 30.421875 84.925781 C 30.058594 84.925781 29.757812 84.628906 29.757812 84.261719 L 29.757812 77.601562 C 29.757812 77.234375 30.058594 76.9375 30.421875 76.9375 C 30.789062 76.9375 31.085938 77.234375 31.085938 77.601562 L 31.085938 84.261719 C 31.085938 84.628906 30.789062 84.925781 30.421875 84.925781 Z M 30.421875 84.925781 "/>
<path style=" stroke:none;fill-rule:nonzero;fill:rgb(41.568627%,14.901961%,65.882353%);fill-opacity:1;" d="M 30.421875 77.035156 C 30.734375 77.035156 30.988281 77.289062 30.988281 77.597656 L 30.988281 84.261719 C 30.988281 84.574219 30.734375 84.824219 30.421875 84.824219 C 30.113281 84.824219 29.859375 84.574219 29.859375 84.261719 L 29.859375 77.597656 C 29.859375 77.289062 30.113281 77.035156 30.421875 77.035156 M 30.421875 76.835938 C 30 76.835938 29.660156 77.179688 29.660156 77.597656 L 29.660156 84.261719 C 29.660156 84.683594 30 85.027344 30.421875 85.027344 C 30.84375 85.027344 31.1875 84.683594 31.1875 84.261719 L 31.1875 77.597656 C 31.1875 77.179688 30.84375 76.835938 30.421875 76.835938 Z M 30.421875 76.835938 "/>
<path style=" stroke:none;fill-rule:nonzero;fill:rgb(44.705882%,16.078431%,70.980392%);fill-opacity:1;" d="M 35.992188 79.613281 L 35.675781 79.851562 L 35.675781 81.035156 L 35.992188 81.320312 Z M 35.992188 79.613281 "/>
<path style=" stroke:none;fill-rule:nonzero;fill:rgb(96.078431%,87.843137%,45.098039%);fill-opacity:1;" d="M 36.558594 85.09375 C 36.191406 85.09375 35.894531 84.796875 35.894531 84.429688 L 35.894531 78.542969 L 37.222656 78.542969 L 37.222656 84.429688 C 37.222656 84.796875 36.925781 85.09375 36.558594 85.09375 Z M 36.558594 85.09375 "/>
<path style=" stroke:none;fill-rule:nonzero;fill:rgb(41.568627%,14.901961%,65.882353%);fill-opacity:1;" d="M 37.121094 78.640625 L 37.121094 84.429688 C 37.121094 84.742188 36.871094 84.996094 36.558594 84.996094 C 36.246094 84.996094 35.992188 84.742188 35.992188 84.429688 L 35.992188 78.640625 L 37.121094 78.640625 M 37.320312 78.441406 L 35.792969 78.441406 L 35.792969 84.429688 C 35.792969 84.851562 36.136719 85.195312 36.558594 85.195312 C 36.980469 85.195312 37.320312 84.851562 37.320312 84.429688 Z M 37.320312 78.441406 "/>
<path style=" stroke:none;fill-rule:nonzero;fill:rgb(44.705882%,16.078431%,70.980392%);fill-opacity:1;" d="M 36.558594 77.203125 C 36.871094 77.203125 37.121094 77.457031 37.121094 77.769531 L 37.121094 78.640625 L 35.992188 78.640625 L 35.992188 77.769531 C 35.992188 77.457031 36.246094 77.203125 36.558594 77.203125 Z M 36.558594 77.203125 "/>
<path style=" stroke:none;fill-rule:nonzero;fill:rgb(38.431373%,13.72549%,61.176471%);fill-opacity:1;" d="M 37.527344 80.339844 L 37.527344 88.082031 C 37.527344 88.664062 37.296875 89.1875 36.925781 89.574219 C 36.535156 89.980469 35.984375 90.230469 35.378906 90.230469 L 31.214844 90.230469 C 30.027344 90.230469 29.066406 89.269531 29.066406 88.082031 L 29.066406 80.339844 Z M 37.527344 80.339844 "/>
<path style=" stroke:none;fill-rule:nonzero;fill:rgb(35.294118%,12.54902%,56.078431%);fill-opacity:1;" d="M 36.925781 89.574219 C 36.535156 89.980469 35.984375 90.230469 35.378906 90.230469 L 31.214844 90.230469 C 30.027344 90.230469 29.066406 89.269531 29.066406 88.082031 L 29.066406 80.339844 C 29.066406 80.339844 31.609375 87.652344 36.925781 89.574219 Z M 36.925781 89.574219 "/>
<path style=" stroke:none;fill-rule:nonzero;fill:rgb(92.941176%,92.941176%,92.941176%);fill-opacity:1;" d="M 28.789062 94.363281 C 27.449219 94.363281 26.363281 93.273438 26.363281 91.9375 C 26.363281 90.597656 27.449219 89.511719 28.789062 89.511719 L 121.210938 89.511719 C 122.550781 89.511719 123.636719 90.597656 123.636719 91.9375 C 123.636719 93.273438 122.550781 94.363281 121.210938 94.363281 Z M 28.789062 94.363281 "/>
<path style=" stroke:none;fill-rule:nonzero;fill:rgb(41.568627%,14.901961%,65.882353%);fill-opacity:1;" d="M 121.210938 89.609375 C 122.496094 89.609375 123.539062 90.652344 123.539062 91.9375 C 123.539062 93.222656 122.496094 94.261719 121.210938 94.261719 L 28.789062 94.261719 C 27.503906 94.261719 26.460938 93.222656 26.460938 91.9375 C 26.460938 90.652344 27.503906 89.609375 28.789062 89.609375 L 121.210938 89.609375 M 121.210938 89.410156 L 28.789062 89.410156 C 27.394531 89.410156 26.261719 90.542969 26.261719 91.9375 C 26.261719 93.328125 27.394531 94.464844 28.789062 94.464844 L 121.210938 94.464844 C 122.605469 94.464844 123.738281 93.328125 123.738281 91.9375 C 123.738281 90.542969 122.605469 89.410156 121.210938 89.410156 Z M 121.210938 89.410156 "/>
<path style=" stroke:none;fill-rule:nonzero;fill:rgb(44.705882%,16.078431%,70.980392%);fill-opacity:1;" d="M 59.207031 11.917969 L 39.816406 11.917969 C 37.921875 11.917969 36.386719 13.453125 36.386719 15.34375 L 36.386719 22.746094 C 36.386719 24.636719 37.921875 26.171875 39.816406 26.171875 L 54.257812 26.171875 L 58.957031 29.582031 L 57.835938 26.171875 L 59.207031 26.171875 C 61.101562 26.171875 62.632812 24.640625 62.632812 22.746094 L 62.632812 15.34375 C 62.632812 13.453125 61.101562 11.917969 59.207031 11.917969 Z M 59.207031 11.917969 "/>
<path style="fill-rule:nonzero;fill:rgb(100%,100%,100%);fill-opacity:1;stroke-width:1;stroke-linecap:round;stroke-linejoin:round;stroke:rgb(44.705882%,16.078431%,70.980392%);stroke-opacity:1;stroke-miterlimit:10;" d="M 303.28125 56.230469 L 206.328125 56.230469 C 196.855469 56.230469 189.199219 63.90625 189.199219 73.378906 L 189.199219 110.371094 C 189.199219 119.84375 196.855469 127.519531 206.328125 127.519531 L 278.554688 127.519531 L 302.050781 144.550781 L 296.445312 127.519531 L 303.28125 127.519531 C 312.753906 127.519531 320.429688 119.84375 320.429688 110.371094 L 320.429688 73.378906 C 320.429688 63.90625 312.753906 56.230469 303.28125 56.230469 Z M 303.28125 56.230469 " transform="matrix(0.2,0,0,0.2,0,0)"/>
<path style="fill:none;stroke-width:1;stroke-linecap:round;stroke-linejoin:round;stroke:rgb(44.705882%,16.078431%,70.980392%);stroke-opacity:1;stroke-miterlimit:10;" d="M 200.429688 97.65625 L 295.898438 97.65625 " transform="matrix(0.2,0,0,0.2,0,0)"/>
<path style="fill:none;stroke-width:1;stroke-linecap:round;stroke-linejoin:round;stroke:rgb(44.705882%,16.078431%,70.980392%);stroke-opacity:1;stroke-miterlimit:10;" d="M 200.429688 71.210938 L 249.648438 71.210938 " transform="matrix(0.2,0,0,0.2,0,0)"/>
<path style="fill:none;stroke-width:1;stroke-linecap:round;stroke-linejoin:round;stroke:rgb(44.705882%,16.078431%,70.980392%);stroke-opacity:1;stroke-miterlimit:10;" d="M 200.546875 84.804688 L 260.527344 84.804688 " transform="matrix(0.2,0,0,0.2,0,0)"/>
<path style="fill:none;stroke-width:1;stroke-linecap:round;stroke-linejoin:round;stroke:rgb(44.705882%,16.078431%,70.980392%);stroke-opacity:1;stroke-miterlimit:10;" d="M 200.722656 91.25 L 280.214844 91.25 " transform="matrix(0.2,0,0,0.2,0,0)"/>
<path style="fill:none;stroke-width:1;stroke-linecap:round;stroke-linejoin:round;stroke:rgb(44.705882%,16.078431%,70.980392%);stroke-opacity:1;stroke-miterlimit:10;" d="M 200.839844 104.277344 L 295.15625 104.277344 " transform="matrix(0.2,0,0,0.2,0,0)"/>
<path style="fill:none;stroke-width:1;stroke-linecap:round;stroke-linejoin:round;stroke:rgb(44.705882%,16.078431%,70.980392%);stroke-opacity:1;stroke-miterlimit:10;" d="M 200.839844 110.878906 L 295.917969 110.878906 " transform="matrix(0.2,0,0,0.2,0,0)"/>
<path style="fill:none;stroke-width:1;stroke-linecap:round;stroke-linejoin:round;stroke:rgb(44.705882%,16.078431%,70.980392%);stroke-opacity:1;stroke-miterlimit:10;" d="M 200.898438 77.8125 L 295.664062 77.8125 " transform="matrix(0.2,0,0,0.2,0,0)"/>
</g>
</svg>
