<?xml version="1.0" encoding="UTF-8" standalone="no"?>
<!-- Created with Inkscape (http://www.inkscape.org/) -->

<svg
   version="1.1"
   id="svg2"
   width="2666.6667"
   height="2666.6667"
   viewBox="0 0 2666.6667 2666.6667"
   sodipodi:docname="13399753_Work_7.eps"
   xmlns:inkscape="http://www.inkscape.org/namespaces/inkscape"
   xmlns:sodipodi="http://sodipodi.sourceforge.net/DTD/sodipodi-0.dtd"
   xmlns="http://www.w3.org/2000/svg"
   xmlns:svg="http://www.w3.org/2000/svg">
  <defs
     id="defs6">
    <clipPath
       clipPathUnits="userSpaceOnUse"
       id="clipPath26">
      <path
         d="m 9907.84,9184.7 c 0,-319.5 259.06,-578.6 578.46,-578.6 H 16912 c 319.5,0 578.5,259.1 578.5,578.6 v 3909.5 H 9907.84 V 9184.7"
         id="path24" />
    </clipPath>
    <clipPath
       clipPathUnits="userSpaceOnUse"
       id="clipPath132">
      <path
         d="m 6091.4,7389 -1132.27,47 c -395.58,298.4 -543.77,947.7 -687.96,1761.2 l 396.46,-423.8 -182.33,-84.2 272.03,-644.3 c 23.5,-55.9 51.88,-109.5 85.13,-159.4 v 0 0 c 44.43,-66.5 97.46,-127 159.09,-178.6 97.75,-81.7 212.98,-142.5 335.38,-173.7 v 0 c 61.17,-15.8 124.29,-24.1 187.97,-24.1 1.07,0 2.15,0 3.23,0 l 593.61,3.8 -30.34,-123.9"
         id="path130" />
    </clipPath>
  </defs>
  <sodipodi:namedview
     id="namedview4"
     pagecolor="#ffffff"
     bordercolor="#000000"
     borderopacity="0.25"
     inkscape:showpageshadow="2"
     inkscape:pageopacity="0.0"
     inkscape:pagecheckerboard="0"
     inkscape:deskcolor="#d1d1d1" />
  <g
     id="g8"
     inkscape:groupmode="layer"
     inkscape:label="ink_ext_XXXXXX"
     transform="matrix(1.3333333,0,0,-1.3333333,0,2666.6667)">
    <g
       id="g10"
       transform="scale(0.1)">
      <path
         d="M 0,0 H 20000 V 20000 H 0 Z"
         style="fill:#ffffff;fill-opacity:1;fill-rule:nonzero;stroke:none"
         id="path12" />
      <path
         d="m 10537.2,11948.2 -10.9,22.5 134.9,65.6 10.9,-22.5 -134.9,-65.6 m -269.8,-131.1 -10.9,22.4 134.9,65.6 10.9,-22.5 -134.9,-65.5 m -269.79,-131.2 -10.93,22.5 134.92,65.6 10.9,-22.5 -134.89,-65.6 m -269.8,-131.2 -10.94,22.5 134.91,65.6 10.94,-22.5 -134.91,-65.6 m -269.9,-131.1 -10.82,22.5 134.88,65.5 10.94,-22.5 -135,-65.5 m -276.22,-119.3 -9.03,23.3 c 46.8,18.2 93.36,37.2 138.36,56.6 l 9.92,-22.9 c -45.3,-19.5 -92.16,-38.7 -139.25,-57 m -283.9,-99.3 -7.5,23.9 c 48.22,15.1 96,31 142,47 l 8.25,-23.6 c -46.24,-16.1 -94.28,-32 -142.75,-47.3 m -289.19,-82.2 -6.2,24.2 c 48.88,12.5 97.5,25.7 144.52,39 l 6.81,-24.1 c -47.21,-13.4 -96.04,-26.5 -145.13,-39.1 m -282.03,-91.8 -11.1,22.4 c 45.17,22.4 92.66,41.2 141.14,56 l 7.3,-23.8 c -47.17,-14.5 -93.38,-32.8 -137.34,-54.6 m -236.62,-174.4 -18.31,17.1 c 7.28,7.8 14.73,15.5 22.36,23.1 27.95,27.6 58.73,53.8 91.5,77.8 l 14.77,-20.2 c -31.78,-23.2 -61.6,-48.6 -88.66,-75.4 -7.4,-7.3 -14.63,-14.8 -21.66,-22.4 m -152.81,-249.9 -23.54,8.4 c 17.06,47.5 39.26,93.6 66,137.3 l 21.32,-13.1 c -25.86,-42.2 -47.32,-86.8 -63.78,-132.6 m 213.68,-25.3 c -47.38,9 -96.83,14.2 -146.99,15.4 l 0.61,25 c 51.52,-1.2 102.33,-6.6 151.04,-15.8 l -4.66,-24.6 m -440.1,-20.7 -6.57,24.1 c 48.83,13.3 98.88,23.1 148.77,29.4 l 3.1,-24.8 c -48.74,-6.1 -97.62,-15.8 -145.3,-28.7 m 709.4,-91.3 c -36.39,27.7 -79.36,51.6 -127.75,71.1 l 9.35,23.2 c 50.45,-20.3 95.39,-45.4 133.54,-74.4 l -15.14,-19.9 m -980.61,-25.8 -13.15,21.3 c 42.43,26.2 87.71,49.8 134.6,70 l 9.89,-23 c -45.75,-19.7 -89.94,-42.7 -131.34,-68.3 m 437.53,-129.4 c -2.85,23.7 -4.3,48.1 -4.3,72.4 -0.01,26.4 1.7,53.5 5.09,80.3 l 24.81,-3.1 c -3.27,-25.8 -4.91,-51.8 -4.9,-77.2 0,-23.3 1.39,-46.7 4.13,-69.4 l -24.83,-3 m -660.44,-63.5 -19.16,16.1 c 32.43,38.7 68.26,75.1 106.52,108.2 l 16.35,-18.9 c -37.24,-32.2 -72.12,-67.7 -103.71,-105.4 m 1359.06,-26.2 -25,0.6 0.07,6.6 c 0,37.5 -7.64,74.2 -22.08,106.2 -3.77,8.3 -7.92,16.5 -12.41,24.4 l 21.75,12.3 c 4.86,-8.6 9.35,-17.4 13.43,-26.4 15.91,-35.2 24.31,-75.5 24.31,-116.5 l -0.07,-7.2 m -577.67,-188 c -33.64,36.2 -61.33,79.8 -82.29,129.7 l 23.05,9.7 c 19.82,-47.2 45.91,-88.3 77.55,-122.3 l -18.31,-17.1 m -944.85,-34.8 -21.25,13.2 c 26.3,42.4 52.22,85.1 77.74,128 l 21.48,-12.8 c -25.59,-43 -51.58,-85.8 -77.97,-128.4 m 1372.23,-36.1 -12.51,21.7 c 41.18,23.7 75.65,58.5 99.7,100.6 l 21.71,-12.3 c -26.25,-46 -63.91,-84 -108.9,-110 m -165.99,-42.7 c -46.14,0 -92.7,8.9 -134.71,25.7 l 9.28,23.2 c 39.07,-15.6 82.44,-23.9 125.43,-23.9 3.74,0.4 6.89,0.3 9.97,0.3 2.04,0 4.06,0 6.21,0.1 l 1.22,-25 c -5.81,-0.3 -12.72,0.1 -17.4,-0.4 m -1369.68,-173.3 -20.7,14 c 28,41.3 55.56,82.9 82.72,124.8 l 20.98,-13.6 c -27.24,-42 -54.9,-83.8 -83,-125.2 m -173.99,-245.1 -20.04,15 c 29.34,39.4 58.96,80.1 88,121 l 20.38,-14.4 c -29.15,-41.1 -58.86,-82 -88.34,-121.6 m -185.02,-236.8 -19.31,15.8 c 31.21,38 62.68,77.4 93.54,116.9 l 19.7,-15.4 c -30.98,-39.7 -62.59,-79.2 -93.93,-117.3 m -196.53,-227.5 -18.48,16.8 c 33.15,36.4 66.55,74.1 99.27,112 l 18.93,-16.3 c -32.88,-38.1 -66.42,-75.9 -99.72,-112.5 m -208.29,-216.8 -17.56,17.8 c 35.25,34.7 70.64,70.5 105.16,106.5 l 18.01,-17.3 c -34.67,-36.1 -70.21,-72.1 -105.61,-107 m -216.73,-207.7 -17.25,18.1 108.51,103.5 17.27,-18 -108.53,-103.6"
         style="fill:#9192ff;fill-opacity:1;fill-rule:nonzero;stroke:none"
         id="path14" />
      <path
         d="m 10076.3,16597.1 c 0,-5.2 0,-10.1 0.6,-15.3 h 3287.7 c -8.6,271 -244.5,488.3 -533.8,488.3 -92.8,0 -179.8,-22.2 -255.8,-61.3 4,210.9 -97.4,412.9 -284.1,521.3 -280.2,162.4 -646.8,52.2 -818.3,-246.3 -51.6,-90 -80,-186.8 -86.4,-282.9 -136.7,62.5 -306.1,99.8 -489.8,99.8 -453,0 -820.1,-225.6 -820.1,-503.6"
         style="fill:#ebebff;fill-opacity:1;fill-rule:nonzero;stroke:none"
         id="path16" />
      <path
         d="m 1915.06,8933.3 h 2674.33 c 0,1 0,2.1 0,3.1 0,222.3 -297.13,403.2 -662.36,403.2 -144.32,0 -281.73,-28 -397.35,-81 l -12.35,-5.6 -0.92,13.5 c -5.32,79.9 -28.71,156.5 -69.52,227.8 -69.59,121.1 -179.86,207.1 -310.47,242.1 -119.55,32.1 -242.79,16.5 -346.94,-43.8 -143.98,-83.6 -231.38,-244 -228.08,-418.8 l 0.29,-15.6 -13.94,7.1 c -62.67,32.2 -133.64,49.3 -205.23,49.3 -229.58,0 -415.41,-166.7 -427.46,-381.3 m 2691.54,-18.8 h -2711 l 0.3,9.7 c 7.23,229.4 203.41,409.1 446.62,409.1 69.39,0 138.22,-15.3 200.07,-44.5 1.81,175.6 91.83,335.5 237.49,420 108.49,62.9 236.82,79.1 361.21,45.7 135.46,-36.3 249.76,-125.4 321.85,-250.9 39.98,-69.8 63.8,-144.5 70.93,-222.4 115.46,50.5 251,77.1 392.96,77.1 375.57,0 681.11,-189.3 681.11,-421.9 0,-4.6 -0.03,-9 -0.56,-13.6 l -0.98,-8.3"
         style="fill:#9192ff;fill-opacity:1;fill-rule:nonzero;stroke:none"
         id="path18" />
      <g
         id="g20">
        <g
           id="g22"
           clip-path="url(#clipPath26)">
          <path
             d="m 9907.84,9184.7 c 0,-319.5 259.06,-578.6 578.46,-578.6 H 16912 c 319.5,0 578.5,259.1 578.5,578.6 v 3909.5 H 9907.84 V 9184.7"
             style="fill:#ffffff;fill-opacity:1;fill-rule:nonzero;stroke:none"
             id="path28" />
          <path
             d="m 9511.01,12097.3 c 88.65,284.2 369.07,502.3 675.49,525.4 306.4,23.1 619,-150.3 753.1,-417.7 163.1,1.5 323.7,-88.9 402.9,-226.7 79.2,-137.8 73.6,-317.3 -14,-449.9 194.1,-33.7 368.4,-161.4 454.3,-333.1 85.9,-171.6 81.3,-382.7 -12.2,-550.4 213.7,108.6 487,98.8 692,-25 205,-123.8 334.2,-356.9 327,-590.2 133.1,208.8 388.3,338.9 642,327.3 253.7,-11.5 495.5,-164.3 608.4,-384.3 119.1,356.4 436.6,644.1 812.4,736 375.8,91.9 797.3,-14.9 1078.5,-273.3 423,-66.2 731.2,-525.4 621,-925.1 228.5,-189.1 345.3,-496.5 297.5,-783.1 -47.8,-286.6 -258.4,-542.6 -536.6,-652.1 l -7276.87,4.7 -620.35,2776.3 1095.43,1241.2"
             style="fill:#d1d1ff;fill-opacity:1;fill-rule:nonzero;stroke:none"
             id="path30" />
          <path
             d="m 16199.2,8606.1 h -2882.9 c 149.9,145.5 297.4,303.3 441.6,470.5 4,-7.3 7.9,-14.8 11.6,-22.3 6.7,20.8 14.1,41.4 22.1,61.7 137.5,161.3 272,331.3 403.3,508 108.9,76.6 231,134.1 360.1,166.9 86.7,22.1 176,32.8 265.2,32.8 284.7,0 570,-108.7 776.6,-305.2 404.4,-65.2 700,-515.5 602.4,-912.4 m -6291.36,1704.8 v 1364.3 c 45.81,13.4 92.96,22.2 140.76,26 17.8,1.4 35.7,2.1 53.6,2.1 278.2,0 552.2,-168 673.7,-419.2 1.4,0 2.8,0 4.2,0 156.1,0 309.2,-89.9 384.9,-226.4 76.4,-137.8 70.8,-317.2 -13.9,-449.9 25.4,-4.6 50.5,-10.8 75,-18.7 -430.2,-129.9 -864.6,-217.1 -1318.26,-278.2"
             style="fill:#f6f6ff;fill-opacity:1;fill-rule:nonzero;stroke:none"
             id="path32" />
          <path
             d="m 14040,9972.7 c -112.9,220 -354.7,372.8 -608.4,384.3 -10.5,0.5 -20.9,0.7 -31.4,0.7 -243.1,0 -483,-127.8 -610.6,-328 7.2,233.3 -122,466.4 -327,590.2 -110.2,66.5 -240.1,100.1 -369.9,100.1 -111.7,0 -223.3,-24.9 -322.1,-75.1 27.5,49.2 47.2,102.2 59.3,156.8 976.6,394.9 1968.6,1051.6 3155.1,2167.4 l 177.6,-158.8 c -337.9,-358.8 -806.7,-717.1 -1348.9,-1183 l 831.1,338.7 c -101.9,-168.8 -250.3,-405.2 -333.5,-506.5 191.5,88.4 499.7,282.9 601.8,386.1 0,-144 -173.4,-384.7 -249,-516.2 391.3,334.9 751.4,735.1 920.1,1104.2 l 174.1,-155.6 c -243.8,-510.5 -523.4,-1040.9 -831.4,-1553.8 -25,-4.3 -49.9,-9.5 -74.5,-15.5 -375.8,-91.9 -693.3,-379.6 -812.4,-736"
             style="fill:#fff6e9;fill-opacity:1;fill-rule:nonzero;stroke:none"
             id="path34" />
          <path
             d="m 13757.9,9076.6 c -113.2,207.9 -339.2,350.6 -575.9,361.5 -9.9,0.5 -19.8,0.7 -29.7,0.7 -235.1,0 -467.3,-128.1 -590.8,-328.5 7.1,233.3 -117.5,466.3 -315.5,589.9 -106.2,66.4 -231.5,99.9 -356.7,99.9 -108.1,0 -216.1,-25 -311.8,-75.4 90.4,167.7 95.1,378.9 12.3,550.4 -71.7,148.3 -207.1,263.8 -363.7,314 201.7,60.9 402.4,131.2 603.8,212.6 -12.1,-54.6 -31.8,-107.6 -59.3,-156.8 98.8,50.2 210.4,75.1 322.1,75.1 129.8,0 259.7,-33.6 369.9,-100.1 205,-123.8 334.2,-356.9 327,-590.2 127.6,200.2 367.5,328 610.6,328 10.5,0 20.9,-0.2 31.4,-0.7 253.7,-11.5 495.5,-164.3 608.4,-384.3 119.1,356.4 436.6,644.1 812.4,736 24.6,6 49.5,11.2 74.5,15.5 -229.4,-381.7 -474.4,-753.8 -732,-1100.2 -179.3,-126.2 -322.9,-304.1 -403.3,-508 -11.2,-13.2 -22.4,-26.3 -33.7,-39.4"
             style="fill:#f1e8e9;fill-opacity:1;fill-rule:nonzero;stroke:none"
             id="path36" />
          <path
             d="m 13316.3,8606.1 h -2830 c -319.4,0 -578.46,259.1 -578.46,578.6 v 1126.2 c 453.66,61.1 888.06,148.3 1318.26,278.2 156.6,-50.2 292,-165.7 363.7,-314 82.8,-171.5 78.1,-382.7 -12.3,-550.4 95.7,50.4 203.7,75.4 311.8,75.4 125.2,0 250.5,-33.5 356.7,-99.9 198,-123.6 322.6,-356.6 315.5,-589.9 123.5,200.4 355.7,328.5 590.8,328.5 9.9,0 19.8,-0.2 29.7,-0.7 236.7,-10.9 462.7,-153.6 575.9,-361.5 -144.2,-167.2 -291.7,-325 -441.6,-470.5 m 475.3,509.9 c 80.4,203.9 224,381.8 403.3,508 -131.3,-176.7 -265.8,-346.7 -403.3,-508"
             style="fill:#fcf3e9;fill-opacity:1;fill-rule:nonzero;stroke:none"
             id="path38" />
          <path
             d="m 15281.6,12943.3 c -342.4,-405.1 -858.8,-792.6 -1467.9,-1316 l 831.1,338.7 c -101.9,-168.8 -250.3,-405.2 -333.5,-506.5 191.5,88.4 499.7,282.9 601.8,386.1 0,-144 -173.4,-384.7 -249,-516.2 443.3,379.4 846.6,842.6 976.8,1249.4 l -359.3,364.5"
             style="fill:#ffa121;fill-opacity:1;fill-rule:nonzero;stroke:none"
             id="path40" />
          <path
             d="m 15570.8,12650 -226,229.2 c 11.6,14.5 22.9,29.1 33.9,43.6 l 204.4,-234.7 c -3.8,-12.6 -7.9,-25.3 -12.3,-38.1"
             style="fill:#ffffff;fill-opacity:1;fill-rule:nonzero;stroke:none"
             id="path42" />
          <path
             d="m 15004.3,11860.8 c 45.2,86.8 148.1,246.1 149.6,340.2 -60.2,-68.5 -240.8,-198.9 -352.7,-258.7 49.3,67.1 137.7,223.2 198.5,334.7 l -485,-230.1 c 338.8,329.7 628.4,579.1 830.1,832.3 l 226,-229.2 c -89.9,-258.2 -318.1,-548.4 -566.5,-789.2"
             style="fill:#ffc77a;fill-opacity:1;fill-rule:nonzero;stroke:none"
             id="path44" />
          <path
             d="m 12233.8,11546.9 c 2.7,-62.7 0,-168.4 -62.6,-204.6 -104.4,-60.4 -186.5,86.4 -224.9,160.1 -45.7,88.2 -34,197.5 69.4,236.7 136.6,51.9 213.1,-75.4 218.1,-192.2"
             style="fill:#d1d1ff;fill-opacity:1;fill-rule:nonzero;stroke:none"
             id="path46" />
          <path
             d="m 17185,9645.8 c 2.7,-62.6 0,-168.3 -62.6,-204.6 -104.4,-60.4 -186.5,86.4 -224.9,160.2 -45.7,88.1 -34,197.4 69.4,236.7 136.6,51.8 213.1,-75.5 218.1,-192.3"
             style="fill:#d1d1ff;fill-opacity:1;fill-rule:nonzero;stroke:none"
             id="path48" />
          <path
             d="m 11766.4,12255.2 c 0,-48.4 -39.2,-87.5 -87.5,-87.5 -48.3,0 -87.5,39.1 -87.5,87.5 0,48.3 39.2,87.5 87.5,87.5 48.3,0 87.5,-39.2 87.5,-87.5"
             style="fill:#d1d1ff;fill-opacity:1;fill-rule:nonzero;stroke:none"
             id="path50" />
          <path
             d="m 16262.1,10676 c 0,-73.6 -59.6,-133.2 -133.2,-133.2 -73.6,0 -133.2,59.6 -133.2,133.2 0,73.6 59.6,133.2 133.2,133.2 73.6,0 133.2,-59.6 133.2,-133.2"
             style="fill:#d1d1ff;fill-opacity:1;fill-rule:nonzero;stroke:none"
             id="path52" />
        </g>
      </g>
      <path
         d="M 9920.34,13081.7 V 9184.6 c 0,-312.1 253.86,-566 565.96,-566 H 16912 c 312.1,0 566,253.9 566,566 v 3897.1 z M 16912,8593.6 h -6425.7 c -325.8,0 -590.96,265.2 -590.96,591 v 3922.1 H 17503 V 9184.6 c 0,-325.8 -265.1,-591 -591,-591"
         style="fill:#9192ff;fill-opacity:1;fill-rule:nonzero;stroke:none"
         id="path54" />
      <path
         d="m 16912,14608.9 h -6425.7 c -319.4,0 -578.46,-258.9 -578.46,-578.5 v -936.2 h 7582.66 v 936.2 c 0,319.6 -259,578.5 -578.5,578.5"
         style="fill:#ffffff;fill-opacity:1;fill-rule:nonzero;stroke:none"
         id="path56" />
      <path
         d="M 9920.34,13106.7 H 17478 v 923.7 c 0,312.1 -253.9,566 -566,566 h -6425.7 c -312.1,0 -565.96,-253.9 -565.96,-566 z m 7582.66,-25 H 9895.34 v 948.7 c 0,325.9 265.16,591 590.96,591 H 16912 c 325.9,0 591,-265.1 591,-591 v -948.7"
         style="fill:#9192ff;fill-opacity:1;fill-rule:nonzero;stroke:none"
         id="path58" />
      <path
         d="m 10988.9,13851.6 c 0,-175.2 -142,-317.2 -317.2,-317.2 -175.2,0 -317.2,142 -317.2,317.2 0,175.1 142,317.1 317.2,317.1 175.2,0 317.2,-142 317.2,-317.1"
         style="fill:#d1d1ff;fill-opacity:1;fill-rule:nonzero;stroke:none"
         id="path60" />
      <path
         d="m 11923.1,13851.6 c 0,-175.2 -142,-317.2 -317.2,-317.2 -175.2,0 -317.2,142 -317.2,317.2 0,175.1 142,317.1 317.2,317.1 175.2,0 317.2,-142 317.2,-317.1"
         style="fill:#ffffff;fill-opacity:1;fill-rule:nonzero;stroke:none"
         id="path62" />
      <path
         d="m 11605.9,14156.2 c -168,0 -304.7,-136.7 -304.7,-304.6 0,-168 136.7,-304.7 304.7,-304.7 168,0 304.6,136.7 304.6,304.7 0,167.9 -136.6,304.6 -304.6,304.6 z m 0,-634.3 c -181.8,0 -329.7,147.9 -329.7,329.7 0,181.7 147.9,329.6 329.7,329.6 181.8,0 329.6,-147.9 329.6,-329.6 0,-181.8 -147.8,-329.7 -329.6,-329.7"
         style="fill:#9192ff;fill-opacity:1;fill-rule:nonzero;stroke:none"
         id="path64" />
      <path
         d="m 14020.3,13548.8 h -1262.9 c -167.2,0 -302.7,135.6 -302.7,302.8 0,167.1 135.5,302.7 302.7,302.7 h 1262.9 c 167.2,0 302.7,-135.6 302.7,-302.7 0,-167.2 -135.5,-302.8 -302.7,-302.8"
         style="fill:#ffffff;fill-opacity:1;fill-rule:nonzero;stroke:none"
         id="path66" />
      <path
         d="m 12757.4,14141.8 c -160,0 -290.2,-130.2 -290.2,-290.2 0,-160.1 130.2,-290.3 290.2,-290.3 h 1262.9 c 160,0 290.2,130.2 290.2,290.3 0,160 -130.2,290.2 -290.2,290.2 z m 1262.9,-605.5 h -1262.9 c -173.8,0 -315.2,141.4 -315.2,315.3 0,173.8 141.4,315.2 315.2,315.2 h 1262.9 c 173.8,0 315.2,-141.4 315.2,-315.2 0,-173.9 -141.4,-315.3 -315.2,-315.3"
         style="fill:#9192ff;fill-opacity:1;fill-rule:nonzero;stroke:none"
         id="path68" />
      <path
         d="m 16597.5,15298.9 c -506.4,-443.3 -1379.8,-137.8 -1651.2,-491.7 l 775.5,-614.1 875.7,1105.8"
         style="fill:#3335cf;fill-opacity:1;fill-rule:nonzero;stroke:none"
         id="path70" />
      <path
         d="m 14946.3,14807.2 v 0 c -38.8,-103.3 -17.7,-219.5 54.8,-302.6 l 549.5,-629.4 171.2,317.9 -775.5,614.1"
         style="fill:#d1d1ff;fill-opacity:1;fill-rule:nonzero;stroke:none"
         id="path72" />
      <path
         d="m 17745.3,14390 c -315.4,-594.5 182.1,-1374.6 -100.2,-1719.9 l -775.5,614.1 875.7,1105.8"
         style="fill:#3335cf;fill-opacity:1;fill-rule:nonzero;stroke:none"
         id="path74" />
      <path
         d="m 17645.1,12670.1 v 0 c -91.6,-61.4 -209.6,-67.6 -307.1,-16 l -738.6,390.6 270.2,239.5 775.5,-614.1"
         style="fill:#d1d1ff;fill-opacity:1;fill-rule:nonzero;stroke:none"
         id="path76" />
      <path
         d="m 18139.2,16060.8 -690.4,-253.4 602,-476.7 z"
         style="fill:#1b1b43;fill-opacity:1;fill-rule:nonzero;stroke:none"
         id="path78" />
      <path
         d="m 18050.8,15330.7 c -96.5,-1092.6 -903.7,-2112 -1884.2,-2678.3 l -893.4,706.8 c 374.9,1179.6 1073.1,2023.6 2175.6,2448.2 l 602,-476.7"
         style="fill:#c5c5ff;fill-opacity:1;fill-rule:nonzero;stroke:none"
         id="path80" />
      <path
         d="m 15273.2,13359.2 -387.6,-268.3 1108.5,-877.8 172.5,439.3 -893.4,706.8"
         style="fill:#3335cf;fill-opacity:1;fill-rule:nonzero;stroke:none"
         id="path82" />
      <path
         d="m 17514.7,14604.2 c -142.2,-179.6 -403,-209.9 -582.5,-67.7 -179.6,142.2 -209.9,403 -67.7,582.5 142.2,179.5 403,209.8 582.5,67.7 179.6,-142.2 209.9,-403 67.7,-582.5"
         style="fill:#ffffff;fill-opacity:1;fill-rule:nonzero;stroke:none"
         id="path84" />
      <path
         d="m 17100.9,15117.2 -8.1,23.6 c 24.6,8.6 50.3,13.8 76.4,15.6 l 1.8,-24.9 c -23.9,-1.7 -47.5,-6.5 -70.1,-14.3 z m 209.1,-13.3 c -21.4,10.7 -44.2,18.4 -67.6,23.1 l 4.8,24.5 c 25.6,-5.1 50.5,-13.5 73.9,-25.2 z m -326.1,-66.5 -19,16.2 c 17,19.9 36.6,37.5 58.1,52.2 l 14.1,-20.7 c -19.7,-13.4 -37.6,-29.5 -53.2,-47.7 z m 432.1,-27.5 c -13.1,19.9 -28.8,38.1 -46.8,54 l 16.6,18.7 c 19.6,-17.4 36.8,-37.2 51.1,-59 z m -492.8,-100.6 -24.6,4.4 c 4.6,25.8 12.6,50.8 23.8,74.4 l 22.6,-10.7 c -10.2,-21.6 -17.6,-44.5 -21.8,-68.1 z m 536.6,-34.2 c -1.2,24 -5.6,47.6 -12.9,70.3 l 23.7,7.8 c 8.1,-24.8 12.8,-50.6 14.2,-76.8 z m -547.6,-115.6 c -9,24.5 -14.7,50.1 -17,76.2 l 24.9,2.2 c 2.1,-23.9 7.3,-47.3 15.5,-69.7 z m 539.6,-34.4 -22.1,11.6 c 11,21.2 19.2,43.8 24.3,67.2 l 24.4,-5.4 c -5.6,-25.5 -14.5,-50.2 -26.6,-73.4 z m -450,-91.7 c -20.3,16.6 -38.2,35.8 -53.2,57 l 20.3,14.5 c 13.8,-19.4 30.2,-37 48.8,-52.2 z m 363.4,-9.6 -14.8,20.1 c 19.1,14.2 36.4,30.9 51.3,49.7 l 19.6,-15.5 c -16.3,-20.6 -35.1,-38.8 -56.1,-54.3 z m -222.3,-54.1 c -25.9,4.1 -51.1,11.6 -74.8,22.4 l 10.3,22.8 c 21.7,-9.9 44.7,-16.8 68.4,-20.5 z m 78,-2 -2.6,24.9 c 23.8,2.5 47.1,8.2 69.5,16.8 l 9,-23.3 c -24.3,-9.4 -49.9,-15.6 -75.9,-18.4"
         style="fill:#9192ff;fill-opacity:1;fill-rule:nonzero;stroke:none"
         id="path86" />
      <path
         d="m 15146.3,12260.9 -19.8,15.7 c -29,22.9 -33.9,65.4 -11,94.4 l 777.7,982.1 c 22.9,29 65.5,33.9 94.5,10.9 l 19.7,-15.6 c 29,-23 34,-65.5 11,-94.5 l -777.6,-982 c -23,-29 -65.5,-34 -94.5,-11"
         style="fill:#1b1b43;fill-opacity:1;fill-rule:nonzero;stroke:none"
         id="path88" />
      <path
         d="m 13744.2,6404.5 h -150 v 25 h 150 z m 300,0 h -150 v 25 h 150 z m 300,0 h -150 v 25 h 150 z m 300,0 h -150 v 25 h 150 z m 300,0 h -150 v 25 h 150 z m 300,0 h -150 v 25 h 150 z m 300,0 h -150 v 25 h 150 z m 300,0 h -150 v 25 h 150 z m 300,0 h -150 v 25 h 150 z m 300,0 h -150 v 25 h 150 z m 286.2,-49.6 c -43.5,22.2 -90,37.2 -138.3,44.5 l 3.7,24.7 c 51,-7.7 100.1,-23.5 146,-46.9 z m -3420.5,-6 -12,21.9 c 45.3,24.8 93.9,42 144.6,51.1 l 4.5,-24.6 c -48.1,-8.6 -94.2,-24.9 -137.1,-48.4 z m 3621.8,-198.5 c -21.5,43.7 -49.8,83.6 -84.2,118.5 l 17.9,17.5 c 36.2,-36.8 66.1,-78.8 88.8,-125 z m -3817.2,-11.6 -22.8,10.4 c 21.4,46.8 50.1,89.7 85.3,127.5 l 18.3,-17.1 c -33.4,-35.8 -60.6,-76.4 -80.8,-120.8 z m 3888.7,-275.5 h -25 v 86.7 c 0,20.5 -1.4,41.2 -4.1,61.5 l 24.7,3.3 c 2.9,-21.3 4.4,-43.1 4.4,-64.8 z m -3929.7,-13.2 h -25 v 99.9 c 0,17 0.9,34.3 2.7,51.3 l 24.9,-2.7 c -1.7,-16.1 -2.6,-32.5 -2.6,-48.6 z m 3929.7,-286.8 h -25 v 150 h 25 z m -3929.7,-13.2 h -25 v 150 h 25 z m 3929.7,-286.8 h -25 v 150 h 25 z m -3929.7,-13.2 h -25 v 150 h 25 z m 3929.7,-286.8 h -25 v 150 h 25 z m -3929.7,-13.2 h -25 v 150 h 25 z m 3929.7,-286.8 h -25 v 150 h 25 z m -3929.7,-13.2 h -25 v 150 h 25 z m 3929.7,-286.8 h -25 v 150 h 25 z m -3929.7,-13.2 h -25 v 150 h 25 z m 3915,-288.6 -24.2,6.1 c 9.2,36.4 13.9,74.1 13.9,112 v 33.7 h 25 v -33.7 c 0,-40 -4.9,-79.7 -14.7,-118.1 z m -3921.8,-13.2 c -12.1,42.5 -18.2,86.7 -18.2,131.3 v 20.5 h 25 v -20.5 c 0,-42.3 5.8,-84.2 17.2,-124.4 z m 3758.4,-241.6 -15.7,19.4 c 38,30.8 70.7,67.2 97,108.3 l 21.1,-13.6 c -27.8,-43.3 -62.3,-81.7 -102.4,-114.1 z m -3587.8,-8.4 c -41,31.3 -76.5,68.7 -105.5,111.2 l 20.6,14.1 c 27.5,-40.3 61.2,-75.8 100,-105.5 z m 3304.4,-97.9 -0.9,25 c 49,1.8 97,11.4 142.5,28.5 l 8.8,-23.4 c -48.1,-18 -98.6,-28.1 -150.4,-30.1 z m -3018.1,-0.3 c -51.8,0.5 -102.6,9.2 -151.1,25.8 l 8.1,23.6 c 45.9,-15.7 94.1,-23.9 143.2,-24.4 z m 300.1,0 h -150 v 25 h 150 z m 300,0 h -150 v 25 h 150 z m 300,0 h -150 v 25 h 150 z m 300,0 h -150 v 25 h 150 z m 300,0 h -150 v 25 h 150 z m 300,0 h -150 v 25 h 150 z m 300,0 h -150 v 25 h 150 z m 300,0 h -150 v 25 h 150 z m 300,0 h -150 v 25 h 150 z m 300,0 h -150 v 25 h 150 v -25"
         style="fill:#9192ff;fill-opacity:1;fill-rule:nonzero;stroke:none"
         id="path90" />
      <path
         d="m 16250.1,4133.4 h -3191.5 c -203.8,0 -369.1,165.3 -369.1,369.2 v 2040.6 c 0,203.9 165.3,369.1 369.1,369.1 h 3191.5 c 203.9,0 369.1,-165.2 369.1,-369.1 V 4502.6 c 0,-203.9 -165.2,-369.2 -369.1,-369.2"
         style="fill:#9192ff;fill-opacity:1;fill-rule:nonzero;stroke:none"
         id="path92" />
      <path
         d="m 13798.3,4425 h -425.5 v 864.1 h 425.5 V 4425"
         style="fill:#ffffff;fill-opacity:1;fill-rule:nonzero;stroke:none"
         id="path94" />
      <path
         d="m 14510.8,4425 h -425.4 v 836.4 h 425.4 V 4425"
         style="fill:#ffffff;fill-opacity:1;fill-rule:nonzero;stroke:none"
         id="path96" />
      <path
         d="m 15223.4,4425 h -425.5 v 1273.3 h 425.5 V 4425"
         style="fill:#ffffff;fill-opacity:1;fill-rule:nonzero;stroke:none"
         id="path98" />
      <path
         d="m 15936,4425 h -425.5 V 6071.8 H 15936 V 4425"
         style="fill:#ffffff;fill-opacity:1;fill-rule:nonzero;stroke:none"
         id="path100" />
      <path
         d="m 15795.9,6421.1 h -2283.1 v 99.8 h 2283.1 v -99.8"
         style="fill:#ffffff;fill-opacity:1;fill-rule:nonzero;stroke:none"
         id="path102" />
      <path
         d="m 6561.28,9625.1 c -72.35,250.8 -225.49,470.7 -435.64,625.5 l -84.4,62.2 71.63,-1482.3 554,428.5 -105.59,366.1"
         style="fill:#ffa121;fill-opacity:1;fill-rule:nonzero;stroke:none"
         id="path104" />
      <path
         d="m 8341.6,7833.3 -123.07,241 c -31.17,61.1 -86.53,106.2 -152.59,124.5 l -362.14,100.3 -931.61,594.8 -105.32,365.1 -554,-428.5 5.04,-104.1 c 10.08,-208.9 138.19,-393.8 330.18,-476.6 l 904.57,-390.2 429.97,-9.6 c 138.55,-47.7 186.33,-167.2 272.32,-124.2 32.05,16 -93.16,222.2 -93.16,222.2 l 207.82,-229.3 171.99,114.6"
         style="fill:#ffbc96;fill-opacity:1;fill-rule:nonzero;stroke:none"
         id="path106" />
      <path
         d="m 6661.29,8741.3 -21.85,18.6 121.83,143.3 21.85,-18.6 -121.83,-143.3"
         style="fill:#d28572;fill-opacity:1;fill-rule:nonzero;stroke:none"
         id="path108" />
      <path
         d="m 6721.33,7232.9 677.77,59.8 c 441.19,39 824.98,-317.3 846.48,-785.8 l 153.16,-3338.1 -934.95,-29.1 -742.46,4093.2"
         style="fill:#26289c;fill-opacity:1;fill-rule:nonzero;stroke:none"
         id="path110" />
      <path
         d="m 7538.98,3172.9 28.67,-922.1 h 1385.47 l -683.18,568.5 -43,444.3 -687.96,-90.7"
         style="fill:#1b1b43;fill-opacity:1;fill-rule:nonzero;stroke:none"
         id="path112" />
      <path
         d="m 7996.01,2572.1 -34.98,45.4 291.41,224.5 34.99,-45.4 -291.42,-224.5"
         style="fill:#ffffff;fill-opacity:1;fill-rule:nonzero;stroke:none"
         id="path114" />
      <path
         d="m 7223.66,3172.9 28.67,-922.1 H 8637.8 l -683.18,568.5 -42.99,444.3 -687.97,-90.7"
         style="fill:#d1d1ff;fill-opacity:1;fill-rule:nonzero;stroke:none"
         id="path116" />
      <path
         d="m 7680.69,2572.1 -34.99,45.4 291.43,224.5 34.99,-45.4 -291.43,-224.5"
         style="fill:#ffffff;fill-opacity:1;fill-rule:nonzero;stroke:none"
         id="path118" />
      <path
         d="M 8255.61,3082.1 H 7109 l -817.24,2514.5 -114.37,352 -1633.9,7.2 c -100.91,1.4 -197.51,48.1 -279.49,117.2 -173.71,146.5 -253.68,376.6 -222.15,601.7 l 143.33,1022.4 2427.34,-315.5 c 460.37,-60 832.15,-404.5 926.75,-858.9 l 716.34,-3440.6"
         style="fill:#3335cf;fill-opacity:1;fill-rule:nonzero;stroke:none"
         id="path120" />
      <path
         d="m 6514.2,5948.6 -222.44,-352 -114.37,352 z"
         style="fill:#1b1b43;fill-opacity:1;fill-rule:nonzero;stroke:none"
         id="path122" />
      <path
         d="m 6214.08,7882.3 c -11.75,-47.3 -24.07,-94.6 -36.69,-142.2 l -85.99,-351.1 -1132.27,47 -815.23,33.8 c -216.14,8.9 -372.65,209.6 -328.51,421.4 l 380.11,1829.1 c 48.72,311 301.26,550.4 614.57,582.8 l 930.18,95.7 300.98,-86 c 293.82,-157.6 294.11,-443.4 308.15,-630.6 61.63,-819.2 -14.33,-1315.4 -135.3,-1799.9"
         style="fill:#ffa121;fill-opacity:1;fill-rule:nonzero;stroke:none"
         id="path124" />
      <g
         id="g126">
        <g
           id="g128"
           clip-path="url(#clipPath132)">
          <path
             d="M 4271.17,7389 H 6121.74 V 9197.2 H 4271.17 Z"
             style="fill:#ba792b;fill-opacity:1;fill-rule:nonzero;stroke:none"
             id="path134" />
        </g>
      </g>
      <path
         d="m 5221.41,9869.7 c 49.6,-53.1 106.07,-99.5 169.2,-134.1 62.87,-34.6 131.3,-59.9 202.18,-68.3 70.13,-9.1 144.16,-3.2 205.73,30.3 62.94,31.3 102.99,97.4 110.52,168.9 l 11.18,-0.7 c -0.39,-37.5 -9.85,-75.4 -28.49,-109.1 -18.82,-33.7 -47.54,-61.7 -80.9,-81 -67.37,-38.9 -147.34,-46 -221.66,-36.5 -74.8,10.3 -146.83,36.5 -210.68,75.4 -64.3,38.4 -120.48,89.3 -165.67,147.9 l 8.59,7.2"
         style="fill:#1b1b43;fill-opacity:1;fill-rule:nonzero;stroke:none"
         id="path136" />
      <path
         d="m 6374.42,8752.2 -21.43,1.5 c 20.59,288.4 -0.27,642.9 -62.01,1053.5 l 21.27,3.2 c 61.97,-412.2 82.89,-768.2 62.17,-1058.2"
         style="fill:#1b1b43;fill-opacity:1;fill-rule:nonzero;stroke:none"
         id="path138" />
      <path
         d="M 8298.6,7525.2 H 7233.22 v 210.2 H 8298.6 v -210.2"
         style="fill:#1b1b43;fill-opacity:1;fill-rule:nonzero;stroke:none"
         id="path140" />
      <path
         d="M 10142.7,7525.2 H 8002.4 l 984.16,1882.3 h 2140.34 l -984.2,-1882.3"
         style="fill:#9192ff;fill-opacity:1;fill-rule:nonzero;stroke:none"
         id="path142" />
      <path
         d="m 5457.18,11903.7 c -250.81,247.3 -723.79,143.4 -716.62,-272.3 -515.97,-136.1 -544.64,-702.3 -336.81,-992.5 l 179.15,-14.3 39.41,211.4 103.92,-215 501.63,-32.3 229.32,1315"
         style="fill:#1b1b43;fill-opacity:1;fill-rule:nonzero;stroke:none"
         id="path144" />
      <path
         d="m 5876.41,10979.3 v -789.7 c 0,-7.2 -0.29,-14.1 -0.86,-20.9 -12.33,-162.6 -169.7,-277.5 -330.5,-236 -237.07,61.4 -401.89,275.8 -399.88,520.6 l 4.01,526 h 727.23"
         style="fill:#ffbc96;fill-opacity:1;fill-rule:nonzero;stroke:none"
         id="path146" />
      <path
         d="m 5876.41,10637.9 v -448.3 c 0,-7.2 -0.29,-14.1 -0.86,-20.9 -211.26,34.6 -455.49,279.2 -515.11,545.4 l 515.97,-76.2"
         style="fill:#1b1b43;fill-opacity:1;fill-rule:nonzero;stroke:none"
         id="path148" />
      <path
         d="m 6303.8,10920.8 c -10.88,-62.8 -25.51,-127 -45,-188 -63.06,-200.4 -176.29,-366.6 -378.95,-337.7 -476.41,68.2 -741.57,559 -741.57,559 l 325.93,372.6 218.71,294.1 655.57,-283.2 c 0,0 3.44,-200.4 -34.69,-416.8"
         style="fill:#ffbc96;fill-opacity:1;fill-rule:nonzero;stroke:none"
         id="path150" />
      <path
         d="m 5279.22,11079.6 c 209.09,6.7 370.8,113.2 439.53,415.7 0,0 487.3,-420.5 726.18,-195.9 200.04,188 -139.31,620.6 -701.02,672.2 -204.62,18.7 -408.59,-45.1 -568.94,-173.6 -272.24,-218.2 -298.25,-725.5 -43.85,-901.1 l 148.1,182.7"
         style="fill:#1b1b43;fill-opacity:1;fill-rule:nonzero;stroke:none"
         id="path152" />
      <path
         d="m 5034.38,11609.9 c -13.66,49.4 -3.48,104.2 18.57,151.3 22.38,47.4 56.91,88.7 98.13,120.7 41.22,32.1 89.59,55.1 140.43,65.7 50.65,10.4 104.51,8.8 151.34,-11.6 -48.35,-15.6 -90.24,-32.1 -129.6,-52.4 -39.25,-20.1 -75.53,-43.4 -109.5,-69.6 -33.89,-26.3 -65.37,-55.5 -93.71,-88.6 -28.51,-33.3 -53.52,-69.8 -75.66,-115.5"
         style="fill:#ffa121;fill-opacity:1;fill-rule:nonzero;stroke:none"
         id="path154" />
      <path
         d="m 5367.89,11106.7 c 40.43,-101 5.44,-210 -78.16,-243.4 -83.59,-33.5 -184.13,21.3 -224.56,122.3 -40.42,101 -5.43,210 78.16,243.4 83.59,33.5 184.13,-21.3 224.56,-122.3"
         style="fill:#ffbc96;fill-opacity:1;fill-rule:nonzero;stroke:none"
         id="path156" />
      <path
         d="m 5216.53,10937.9 c 3.58,34.9 3.82,68 -6.35,98.4 -9.87,30.5 -29.23,57 -51.53,84.4 l 7.04,8.7 c 32.41,-16.9 59.92,-47.1 71.65,-84.4 11.79,-37.3 6.67,-77.9 -10.08,-110.3 l -10.73,3.2"
         style="fill:#1b1b43;fill-opacity:1;fill-rule:nonzero;stroke:none"
         id="path158" />
      <path
         d="m 5999.52,11043.6 c 0,-29.6 -21.67,-53.6 -48.42,-53.6 -26.73,0 -48.41,24 -48.41,53.6 0,29.6 21.68,53.6 48.41,53.6 26.75,0 48.42,-24 48.42,-53.6"
         style="fill:#1b1b43;fill-opacity:1;fill-rule:nonzero;stroke:none"
         id="path160" />
      <path
         d="m 6253.73,11001.4 c -3.22,-26.1 -24.98,-45 -48.61,-42 -23.63,2.9 -40.18,26.4 -36.96,52.6 3.22,26.1 24.98,44.9 48.61,42 23.63,-2.9 40.17,-26.4 36.96,-52.6"
         style="fill:#1b1b43;fill-opacity:1;fill-rule:nonzero;stroke:none"
         id="path162" />
      <path
         d="m 5997.06,11178.1 c 1.93,-25 -38.11,-27.4 -97.12,-29.2 -59.01,-1.7 -99.78,-20 -100.25,-4.1 -0.47,15.8 43.18,56.5 101.39,66.3 60.04,10.2 93.67,-3.2 95.98,-33"
         style="fill:#1b1b43;fill-opacity:1;fill-rule:nonzero;stroke:none"
         id="path164" />
      <path
         d="m 6185.58,11154 c -4.34,-24.7 25.11,-31 68.73,-38.7 43.61,-7.6 71.77,-29.8 73.96,-14.1 2.18,15.7 -25.51,60.4 -67.6,76 -43.4,16.1 -69.92,6.2 -75.09,-23.2"
         style="fill:#1b1b43;fill-opacity:1;fill-rule:nonzero;stroke:none"
         id="path166" />
      <path
         d="m 6115.42,10956.9 c 11.18,-13.7 23.64,-25.5 36.37,-37.7 l 19.33,-18 c 6.69,-6 13.92,-12.7 20.37,-22.8 3.16,-5.1 5.73,-11.7 6.15,-19.1 0.57,-7.5 -1.77,-14.7 -4.78,-20.3 -6.64,-11.1 -14.53,-17.6 -23.11,-23.4 -17.14,-11.2 -35.67,-15.9 -53.6,-19.4 l -4.19,10.4 c 15.41,10 30.77,18.9 42.73,29.2 5.71,5.1 11.33,11.3 13.35,16.1 2.22,4.7 1.57,6.3 -1.08,11.9 -6.36,10.5 -22.61,24.4 -33.22,38.9 -11.6,14.4 -22.05,30.8 -28.15,48.8 l 9.83,5.4"
         style="fill:#1b1b43;fill-opacity:1;fill-rule:nonzero;stroke:none"
         id="path168" />
      <path
         d="m 5872.77,10780.5 c 29.29,-33.5 59.79,-64.4 96.47,-84 36.45,-20.2 77.96,-25.9 121.86,-21.1 l 2.98,-10.8 c -21.21,-9.5 -45.13,-14.5 -69.28,-13.1 -24.16,1 -48.08,8.3 -69.13,19.9 -42.31,23.5 -73.49,61.5 -92.34,103 l 9.44,6.1"
         style="fill:#1b1b43;fill-opacity:1;fill-rule:nonzero;stroke:none"
         id="path170" />
      <path
         d="m 5700.88,10810.9 c -65.33,0 -118.29,53 -118.29,118.3 0,65.3 52.96,118.3 118.29,118.3 65.33,0 118.28,-53 118.28,-118.3 0,-65.3 -52.95,-118.3 -118.28,-118.3"
         style="fill:#ffa988;fill-opacity:1;fill-rule:nonzero;stroke:none"
         id="path172" />
      <path
         d="m 6258.8,10732.8 c -18.35,20.9 -29.52,48.1 -29.52,78.2 0,49.9 30.96,92.3 74.52,109.8 -10.88,-62.8 -25.51,-127 -45,-188 v 0"
         style="fill:#ffa988;fill-opacity:1;fill-rule:nonzero;stroke:none"
         id="path174" />
      <path
         d="m 4954.35,9522.2 -683.18,-324.9 214.27,-507.9 716.31,330.3 -247.4,502.5"
         style="fill:#ffa121;fill-opacity:1;fill-rule:nonzero;stroke:none"
         id="path176" />
      <path
         d="m 7485,7760.6 c -18.95,9.5 -30.8,15.9 -30.8,15.9 l 6.84,13.5 c 0,0 12.62,-6.1 30.93,-15.9 l -6.97,-13.5"
         style="fill:#c5c5ff;fill-opacity:1;fill-rule:nonzero;stroke:none"
         id="path178" />
      <path
         d="m 7768.3,7690 c -22.07,-43.6 -191.2,33.5 -270.03,72.2 61.06,-33.8 166.26,-100.3 119.54,-136.7 -37.55,-29 -120.68,32.7 -393,145.6 41.28,-19.5 284.64,-135.3 223.3,-179.1 -66.79,-47.6 -353.44,57.3 -353.44,57.3 L 6846.15,7515.7 H 6559.5 l -1031.37,-6.6 c -64.78,-0.3 -128.99,8 -191.2,24.1 -122.4,31.2 -237.63,92 -335.38,173.7 -61.63,51.6 -114.66,112.1 -159.09,178.6 -33.25,49.9 -61.63,103.5 -85.13,159.4 l -272.03,644.3 716.33,330.6 373.8,-758.8 1232.59,-267.7 343.98,86 c 73.96,18.6 178.59,-12.7 243.66,-52.5 158.8,-97.2 393.27,-295.2 372.64,-336.8"
         style="fill:#ffbc96;fill-opacity:1;fill-rule:nonzero;stroke:none"
         id="path180" />
      <path
         d="m 5336.93,7533.2 v 0 c -122.4,31.2 -237.63,92 -335.38,173.7 -61.63,51.6 -114.66,112.1 -159.09,178.6 54.18,43.6 122.97,69.6 197.8,69.6 174.27,0 315.31,-141 315.31,-315.3 0,-37.5 -6.6,-73.4 -18.64,-106.6"
         style="fill:#ffa988;fill-opacity:1;fill-rule:nonzero;stroke:none"
         id="path182" />
      <path
         d="m 6806.25,7998.7 c 85.47,28.4 172.08,52.9 260.46,71.4 44.19,9.1 88.92,16.5 134.54,19.1 22.81,1.3 45.88,0.9 69.17,-1.8 11.51,-2.3 22.97,-5.3 34.46,-8 10.94,-3.8 21.61,-8.3 32.43,-12.4 83.86,-38 156.92,-92.4 227.58,-148.3 70.64,-56.3 137.32,-116.8 202.13,-179.8 l 2.98,-2.9 0.63,-3.7 c 2.3,-13.6 0.73,-26.1 -6.8,-38.8 -4.62,-5.3 -9.36,-11.2 -15.58,-13.7 -6,-3.9 -11.96,-5.3 -17.91,-6.3 -23.75,-3.9 -44.53,1 -64.38,6.3 -39.85,11 -75.41,29.2 -111.27,46.8 -35.08,18.7 -69.66,38.2 -103.19,59.3 -34.09,20.2 -66.48,42.8 -99.69,64.2 l 15.15,24.3 c 58.64,-34.8 115.66,-71.3 170.2,-112.7 27.06,-21.1 53.86,-42.5 76.91,-70.7 5.52,-7.5 11.09,-15 14.94,-25.2 2.13,-4.8 3.27,-10.9 3.42,-17.5 -0.52,-6.9 -2.65,-14.2 -7.36,-19.6 -9.03,-10.4 -19.9,-13.9 -29.08,-16.2 -9.56,-2.5 -18.5,-3 -27.59,-3.9 l -2.81,-0.3 -3.06,1.3 -311.16,130.3 9.31,21.9 c 49.03,-22.6 96.74,-46.9 142.24,-76.8 22.18,-15.8 45.52,-30.2 61.86,-57.6 3.73,-6.9 6.42,-17.5 2.55,-27.4 -3.92,-9.6 -11.52,-15.7 -18.48,-19 -14.38,-7.3 -28.88,-8.8 -42.81,-9.6 -55.79,-1.3 -108.15,11.8 -160.14,24.6 -51.83,13.7 -102.75,29.9 -153.12,48.1 l 3.78,10.5 c 50.28,-16.8 101.45,-31.6 152.99,-43.9 51.36,-11.6 104.29,-22.9 155.38,-20.4 24.38,1 53.45,11.7 41.59,27.8 -11.18,18.8 -34.27,34.8 -55.46,48.9 -44.03,28 -91.9,51.7 -139.91,73 l 9.31,21.9 312.29,-127.6 -5.86,1 c 7.69,0.8 15.65,1.3 22.44,3.2 7.04,1.5 12.72,4.7 14.64,7 4.37,1.8 -1.5,17.2 -11.28,28.7 -19.81,24.1 -46.04,45.4 -72.3,65.5 -53.13,40 -110.14,76.1 -167.7,109.9 l 15.15,24.2 c 32.97,-21.1 64.95,-43.9 98.51,-63.9 33.06,-20.9 66.94,-40.2 101.16,-58.7 34.6,-17.2 69.57,-35.1 105.79,-45.1 17.76,-5.1 36.65,-8.6 51.81,-6 l 5.54,0.9 c 1.71,0.5 2.74,1.6 4.2,2.2 3.32,1 4.32,3.6 6.56,5.2 2.8,4.3 4.05,12.3 3.06,18.1 l 3.61,-6.6 c -63.43,62.6 -130.16,122.6 -199.01,179.3 -69,56.1 -140.95,110.6 -220.45,147.8 l -30.26,12.1 c -10.34,2.5 -20.57,5.4 -30.98,7.6 -21.32,2.7 -43.17,3.5 -65.2,2.5 -44.06,-1.8 -88.34,-7.9 -132.2,-16 -87.76,-16.3 -174.74,-38.8 -260.19,-65.2 l -3.54,10.7"
         style="fill:#d28572;fill-opacity:1;fill-rule:nonzero;stroke:none"
         id="path184" />
      <path
         d="m 4489.79,8679.5 -9,19.5 706.86,326.1 -294.41,689 19.77,8.5 302.62,-708.2 -725.84,-334.9"
         style="fill:#1b1b43;fill-opacity:1;fill-rule:nonzero;stroke:none"
         id="path186" />
      <path
         d="m 4590.91,2432.3 h -37.5 v 3229.6 h 37.5 V 2432.3"
         style="fill:#1b1b43;fill-opacity:1;fill-rule:nonzero;stroke:none"
         id="path188" />
      <path
         d="M 5475.1,5518.6 H 3669.2 c -122.69,0 -222.15,99.5 -222.15,222.2 v 0 c 0,122.7 99.46,222.1 222.15,222.1 h 1805.9 c 122.69,0 222.15,-99.4 222.15,-222.1 v 0 c 0,-122.7 -99.46,-222.2 -222.15,-222.2"
         style="fill:#d1d1ff;fill-opacity:1;fill-rule:nonzero;stroke:none"
         id="path190" />
      <path
         d="M 5331.77,2222.1 H 3812.53 v 36.7 c 0,184.5 149.55,334.1 334.05,334.1 h 851.15 c 184.49,0 334.04,-149.6 334.04,-334.1 v -36.7"
         style="fill:#d1d1ff;fill-opacity:1;fill-rule:nonzero;stroke:none"
         id="path192" />
      <path
         d="m 9926.21,2234.2 -3200.93,5073.7 31.71,20 3200.93,-5073.7 -31.71,-20"
         style="fill:#1b1b43;fill-opacity:1;fill-rule:nonzero;stroke:none"
         id="path194" />
      <path
         d="m 6756.99,2234.2 -31.71,20 3200.93,5073.7 31.71,-20 -3200.93,-5073.7"
         style="fill:#1b1b43;fill-opacity:1;fill-rule:nonzero;stroke:none"
         id="path196" />
      <path
         d="M 11146,7102.2 H 5537.21 v 423 H 11146 v -423"
         style="fill:#d1d1ff;fill-opacity:1;fill-rule:nonzero;stroke:none"
         id="path198" />
      <path
         d="m 6007.37,16588.2 c -632.53,0 -1147.13,-514.6 -1147.13,-1147.1 0,-632.6 514.6,-1147.2 1147.13,-1147.2 632.53,0 1147.13,514.6 1147.13,1147.2 0,632.5 -514.6,1147.1 -1147.13,1147.1 z m 0,-2319.3 c -646.31,0 -1172.13,525.8 -1172.13,1172.2 0,646.3 525.82,1172.1 1172.13,1172.1 646.32,0 1172.13,-525.8 1172.13,-1172.1 0,-646.4 -525.81,-1172.2 -1172.13,-1172.2"
         style="fill:#9192ff;fill-opacity:1;fill-rule:nonzero;stroke:none"
         id="path200" />
      <path
         d="M 8075.34,15900.3 C 8075.34,15196 7504.35,14625 6800,14625 c -704.35,0 -1275.34,571 -1275.34,1275.3 0,704.4 570.99,1275.4 1275.34,1275.4 704.35,0 1275.34,-571 1275.34,-1275.4"
         style="fill:#ebebff;fill-opacity:1;fill-rule:nonzero;stroke:none"
         id="path202" />
      <path
         d="m 6800.45,15876.2 -707.02,554.2 23.15,29.5 682.97,-535.4 380.83,322.5 24.25,-28.6 -404.18,-342.2"
         style="fill:#1b1b43;fill-opacity:1;fill-rule:nonzero;stroke:none"
         id="path204" />
      <path
         d="m 3490.47,13150 h -647.61 c -104.21,0 -188.69,-84.5 -188.69,-188.7 v -647.6 c 0,-104.2 84.48,-188.7 188.69,-188.7 h 462.17 l 199.14,-275 v 275.7 c 97.79,7 175,88.4 175,188 v 647.6 c 0,104.2 -84.49,188.7 -188.7,188.7"
         style="fill:#ffffff;fill-opacity:1;fill-rule:nonzero;stroke:none"
         id="path206" />
      <path
         d="m 2842.86,13137.5 c -97.16,0 -176.2,-79 -176.2,-176.2 v -647.6 c 0,-97.2 79.04,-176.2 176.2,-176.2 h 468.56 l 180.24,-248.9 v 248.7 l 11.6,0.9 c 91.62,6.6 163.4,83.7 163.4,175.5 v 647.6 c 0,97.2 -79.04,176.2 -176.19,176.2 z m 673.8,-1326.1 -218.02,301.1 h -455.78 c -110.94,0 -201.2,90.3 -201.2,201.2 v 647.6 c 0,110.9 90.26,201.2 201.2,201.2 h 647.61 c 110.94,0 201.19,-90.3 201.19,-201.2 v -647.6 c 0,-101 -75.98,-186.3 -175,-199.3 v -303"
         style="fill:#9192ff;fill-opacity:1;fill-rule:nonzero;stroke:none"
         id="path208" />
      <path
         d="m 3153.39,12304.2 -259.22,374.5 61.66,42.7 190.78,-275.6 287.32,514.2 65.47,-36.6 -346.01,-619.2"
         style="fill:#9192ff;fill-opacity:1;fill-rule:nonzero;stroke:none"
         id="path210" />
      <path
         d="M 17764.4,2222.1 H 2400 v 37.5 h 15364.4 v -37.5"
         style="fill:#1b1b43;fill-opacity:1;fill-rule:nonzero;stroke:none"
         id="path212" />
    </g>
  </g>
</svg>
